#N canvas 898 140 916 642 10;
#X obj 759 501 tgl 15 0 dsp oscPrepOn DSP_TOGGLE 17 7 0 10 -262144
-1 -1 1 1;
#X obj 760 525 tgl 15 0 autoPlay seqActive Sequence_ON 17 7 0 10 -262144
-1 -1 0 1;
#X obj 726 482 vsl 15 64 0 1 0 0 overrideVolume oscPrepOn Override_Volume_Conroller
0 -9 0 10 -262144 -1 -1 6300 1;
#X obj 595 506 tgl 15 0 noise4LeftChannel oscPrepOn empty 17 7 0 10
-262144 -1 -1 1 1;
#X obj 646 506 tgl 15 0 noise4RightChannel oscPrepOn empty 17 7 0 10
-262144 -1 -1 1 1;
#X obj 646 542 tgl 15 0 noise4SoundSwitch oscPrepOn empty 17 7 0 10
-262144 -1 -1 1 1;
#X text 666 540 Master;
#X text 666 505 Right;
#X text 558 505 Left;
#X obj 298 262 tgl 15 0 empty empty softer_noise 17 7 0 10 -262144
-1 -1 0 1;
#X obj 30 382 hradio 15 1 0 16 noise4SetShiftClock empty empty 0 -8
0 10 -262144 -1 -1 0;
#X obj 147 342 hradio 15 1 0 8 noise4SetDivideRatio empty empty 0 -8
0 10 -262144 -1 -1 0;
#X text 114 362 Shift Clock Frequency;
#X obj 298 331 vsl 15 64 0 63 0 0 noise4SetLength empty Set_Length
0 -9 0 10 -4032 -1 -1 1300 1;
#X obj 300 288 tgl 15 0 noise4SetLengthToggle empty Use_Length 17 7
0 10 -4032 -1 -1 1 1;
#X obj 95 266 bng 15 250 50 0 noise4EnvelopeUp empty + 5 7 0 10 -262144
-1 -1;
#X obj 119 268 bng 15 250 50 0 noise4EnvelopeDown empty - 5 7 0 10
-262144 -1 -1;
#X obj 156 262 hsl 115 15 0 16 0 0 noise4InitialVolume noise4uiInitialVolume
InitialNoteVol -2 -8 0 10 -258113 -1 -1 9262 1;
#X obj 156 291 hsl 128 15 0 7.5 0 0 noise4Envelope empty Envelop_Intensity
-2 -8 0 10 -260097 -1 -1 0 0;
#X text 49 247 Env. up/down;
#X text 621 478 Noise;
#X obj 26 151 bng 15 250 50 0 envelopeUp empty + 5 7 0 10 -262144 -1
-1;
#X obj 50 153 bng 15 250 50 0 envelopeDown empty - 5 7 0 10 -262144
-1 -1;
#X obj 24 190 bng 15 250 50 0 sweepUp empty + 5 7 0 10 -262144 -1 -1
;
#X obj 50 189 bng 15 250 50 0 sweepDown empty - 5 7 0 10 -262144 -1
-1;
#X obj 15 30 hsl 115 15 0 16 0 0 iVolume uiInitialVolume InitialNoteVol
-2 -8 0 10 -258113 -1 -1 9262 1;
#X obj 112 148 bng 15 250 50 0 wave1 empty empty 17 7 0 10 -262144
-1 -1;
#X obj 113 172 bng 15 250 50 0 wave2 empty empty 17 7 0 10 -262144
-1 -1;
#X obj 112 194 bng 15 250 50 0 wave3 empty empty 17 7 0 10 -262144
-1 -1;
#X obj 15 59 hsl 128 15 0 7.5 0 0 envelope envelopeCorrection Envelop_Intensity
-2 -8 0 10 -260097 -1 -1 0 0;
#X obj 15 88 hsl 128 15 0 7.5 0 0 sweepDelay sweepDelayCorrection Sweep_Delay
-2 -8 0 10 -4160 -1 -1 0 0;
#X obj 15 117 hsl 128 15 0 7.5 0 0 sweepMagnitude sweepMagnitude Sweep_Magnitude
-2 -8 0 10 -159808 -1 -1 0 0;
#X text 8 139 Env. up/down;
#X text 0 170 Sweep up/down;
#X text 130 200 0.125 pulse wave;
#X text 130 150 0.5 pulse wave;
#X text 132 171 0.25 pulse wave;
#X obj 163 66 vsl 15 64 0 63 0 0 pulse1SetLength empty Set_Length 0
-9 0 10 -4032 -1 -1 0 1;
#X obj 164 28 tgl 15 0 pulse1SetLengthToggle empty Use_Length 17 7
0 10 -4032 -1 -1 0 1;
#X text 5 -24 Pulse Channel 1;
#X text 22 228 Noise Channel 4;
#X obj 84 496 tgl 15 0 pulse1LeftChannel oscPrepOn empty 17 7 0 10
-262144 -1 -1 1 1;
#X obj 122 496 tgl 15 0 pulse1RightChannel oscPrepOn empty 17 7 0 10
-262144 -1 -1 1 1;
#X obj 122 532 tgl 15 0 pulse1SoundSwitch oscPrepOn empty 17 7 0 10
-262144 -1 -1 1 1;
#X text 142 530 Master;
#X text 142 495 Right;
#X text 43 495 Left;
#X text 86 467 Pulse 1;
#X obj 247 495 tgl 15 0 pulse2LeftChannel oscPrepOn empty 17 7 0 10
-262144 -1 -1 1 1;
#X obj 287 495 tgl 15 0 pulse2RightChannel oscPrepOn empty 17 7 0 10
-262144 -1 -1 1 1;
#X obj 287 531 tgl 15 0 pulse2SoundSwitch oscPrepOn empty 17 7 0 10
-262144 -1 -1 1 1;
#X text 307 529 Master;
#X text 307 494 Right;
#X text 209 494 Left;
#X text 251 466 Pulse 2;
#X obj 416 502 tgl 15 0 waveform3LeftChannel oscPrepOn empty 17 7 0
10 -262144 -1 -1 1 1;
#X obj 462 502 tgl 15 0 waveform3RightChannel oscPrepOn empty 17 7
0 10 -262144 -1 -1 1 1;
#X obj 462 538 tgl 15 0 waveform3SoundSwitch oscPrepOn empty 17 7 0
10 -262144 -1 -1 1 1;
#X text 482 536 Master;
#X text 482 501 Right;
#X text 379 501 Left;
#N canvas 689 108 1231 999 noiseChannel4 0;
#X text 233 -4 comment;
#X msg 21 25 524288;
#X obj 84 75 /;
#X text 171 -16 r;
#X obj 166 6 hradio 15 1 0 8 empty noise4SetDivideRatio empty 0 -8
0 10 -262144 -1 -1 0;
#X floatatom 175 101 20 0 0 0 - - -, f 20;
#X obj 64 206 /;
#X obj 105 183 pow;
#X msg 85 146 2;
#X obj 159 159 + 1;
#X obj 168 126 hradio 15 1 0 16 empty noise4SetShiftClock empty 0 -8
0 10 -262144 -1 -1 0;
#X floatatom 67 230 20 0 0 0 - - -, f 20;
#X obj 135 126 bng 15 250 50 0 empty empty empty 17 7 0 10 -262144
-1 -1;
#X msg 10 204 1000;
#X obj 11 -1 loadbang;
#X floatatom 20 330 10 0 0 0 - - -, f 10;
#X obj 405 371 vsl 15 128 0 1 0 0 empty empty empty 0 -9 0 10 -262144
-1 -1 7620 0;
#X obj 723 198 int;
#X obj 758 199 int;
#X obj 645 199 int;
#X obj 681 199 int;
#X obj 859 196 int;
#X obj 966 189 int;
#X obj 794 199 int;
#X obj 823 199 int;
#X msg 433 149 1, f 1;
#X obj 459 132 loadbang;
#X obj 440 199 int;
#X obj 488 199 int;
#X obj 324 199 int;
#X obj 393 199 int;
#X obj 614 199 int;
#X obj 541 205 int;
#X obj 572 199 int;
#X obj 362 294 +;
#X obj 375 311 select 1;
#X msg 378 342 1;
#X msg 417 341 0;
#X obj 320 374 * 0.6;
#X obj 634 75 tgl 15 0 empty empty empty 17 7 0 10 -262144 -1 -1 0
1;
#X obj 899 194 int;
#X obj 209 39 select 0;
#X msg 176 83 0.5;
#X obj 670 110 metro 500;
#X obj 757 362 tgl 15 0 empty empty empty 17 7 0 10 -262144 -1 -1 1
1;
#X obj 742 362 tgl 15 0 empty empty empty 17 7 0 10 -262144 -1 -1 1
1;
#X obj 727 362 tgl 15 0 empty empty empty 17 7 0 10 -262144 -1 -1 0
1;
#X obj 712 362 tgl 15 0 empty empty empty 17 7 0 10 -262144 -1 -1 1
1;
#X obj 697 362 tgl 15 0 empty empty empty 17 7 0 10 -262144 -1 -1 1
1;
#X obj 682 362 tgl 15 0 empty empty empty 17 7 0 10 -262144 -1 -1 1
1;
#X obj 668 362 tgl 15 0 empty empty empty 17 7 0 10 -262144 -1 -1 1
1;
#X obj 654 362 tgl 15 0 empty empty empty 17 7 0 10 -262144 -1 -1 1
1;
#X obj 639 362 tgl 15 0 empty empty empty 17 7 0 10 -262144 -1 -1 1
1;
#X obj 624 362 tgl 15 0 empty empty empty 17 7 0 10 -262144 -1 -1 0
1;
#X obj 609 362 tgl 15 0 empty empty empty 17 7 0 10 -262144 -1 -1 0
1;
#X obj 594 362 tgl 15 0 empty empty empty 17 7 0 10 -262144 -1 -1 0
1;
#X obj 579 362 tgl 15 0 empty empty empty 17 7 0 10 -262144 -1 -1 1
1;
#X obj 564 362 tgl 15 0 empty empty empty 17 7 0 10 -262144 -1 -1 1
1;
#X obj 549 362 tgl 15 0 empty empty empty 17 7 0 10 -262144 -1 -1 1
1;
#X obj 534 362 tgl 15 0 empty empty empty 17 7 0 10 -262144 -1 -1 1
1;
#X obj 848 356 spigot;
#X text 856 287 shifter register width 1-> 7bits 0-> 15bits;
#X text 136 272 freq hertz;
#X floatatom 134 254 5 0 0 0 - - -, f 5;
#X obj 84 248 bng 15 250 50 0 empty empty empty 17 7 0 10 -262144 -1
-1;
#X text 884 240 shifter register width 1-> 7bits 0-> 15bits;
#X text 884 240 shifter register width 1-> 7bits 0-> 15bits;
#X obj 783 -47 vsl 15 128 0 1000 0 0 empty empty empty 0 -9 0 10 -262144
-1 -1 0 1;
#X obj 987 302 tgl 15 0 empty empty empty 17 7 0 10 -262144 -1 -1 0
1;
#X text 1015 486 Sound Length Module;
#X obj 1035 497 vsl 15 128 0 63 0 0 empty noise4SetLength empty 0 -9
0 10 -262144 -1 -1 2621 1;
#X obj 1051 679 tgl 15 0 empty noise4SetLengthToggle SetLength 17 7
0 10 -262144 -1 -1 1 1;
#X obj 985 667 -;
#X msg 923 659 64;
#X obj 918 628 loadbang;
#X obj 981 687 / 256;
#X obj 1054 738 - 1;
#X obj 996 761 select 0;
#X msg 997 787 0;
#X obj 1009 462 bng 15 250 50 0 empty noise4Start empty 17 7 0 10 -262144
-1 -1;
#X obj 1125 806 bng 15 250 50 0 empty empty empty 17 7 0 10 -262144
-1 -1;
#X floatatom 922 785 5 0 0 0 - - -, f 5;
#X obj 988 626 bng 15 250 50 0 empty empty empty 17 7 0 10 -262144
-1 -1;
#X floatatom 928 745 5 0 0 0 - - -, f 5;
#X obj 996 739 int;
#X obj 980 710 * 500;
#X obj 1048 714 metro 4;
#X obj 80 795 *~;
#X obj 105 611 vsl 15 128 0 1 0 0 empty empty empty 0 -9 0 10 -262144
-1 -1 0 1;
#X obj 136 720 tgl 15 0 empty empty empty 17 7 0 10 -262144 -1 -1 1
1;
#X obj 104 754 spigot;
#X obj 163 591 receive noiseSoundCutOff;
#X obj 124 35 bng 15 250 50 0 empty empty empty 17 7 0 10 -262144 -1
-1;
#X floatatom 75 51 5 0 0 0 - - -, f 5;
#X obj 88 293 /;
#X obj 624 55 receive noise4CutOff;
#X obj 1001 813 send noise4CutOff;
#X obj 1024 654 int;
#X obj 78 451 send noiseFreqToPRNG;
#X obj 669 83 receive noiseFreqToPRNG;
#X obj 448 397 send noiseOutputToNoiseSoundControl;
#X text 656 618 +;
#X text 718 620 -;
#X obj 674 621 bng 15 250 50 0 empty noise4EnvelopeUp empty 17 7 0
10 -262144 -1 -1;
#X obj 736 625 bng 15 250 50 0 empty noise4EnvelopeDown empty 17 7
0 10 -262144 -1 -1;
#X floatatom 542 615 5 0 15 0 - - -, f 5;
#X text 492 555 initial volume;
#X text 655 490 envelope sweep;
#X obj 627 573 / 64;
#X obj 645 513 hradio 15 1 0 8 empty noise4Envelope empty 0 -8 0 10
-262144 -1 -1 7;
#X obj 598 822 / 16;
#X floatatom 534 791 5 0 0 0 - - -, f 5;
#X text 472 745 current vol;
#X text 648 600 Up/down volume Envelope;
#X obj 625 630 tgl 15 0 empty empty empty 17 7 0 10 -262144 -1 -1 0.109375
0.09375;
#X obj 601 720 spigot;
#X obj 566 684 +;
#X obj 501 686 int;
#X obj 579 650 delay;
#X obj 491 658 bng 15 250 50 0 empty empty empty 17 7 0 10 -262144
-1 -1;
#X msg 665 658 1;
#X msg 726 666 -1;
#X obj 588 602 * 1000;
#X obj 787 626 bng 15 250 50 0 empty empty empty 17 7 0 10 -262144
-1 -1;
#X msg 774 669 0;
#X floatatom 692 770 5 0 0 0 - - -, f 5;
#X obj 578 754 clip 0 15;
#X text 493 611 v(t-1);
#X floatatom 492 577 5 0 15 0 - - -, f 5;
#X text 469 468 Sound Envelop System;
#X obj 423 523 hsl 128 15 0 127 0 0 empty noise4InitialVolume empty
-2 -8 0 10 -262144 -1 -1 1300 1;
#X obj 801 643 loadbang;
#X obj 487 494 bng 15 250 50 0 empty noise4Start empty 17 7 0 10 -262144
-1 -1;
#X obj 81 566 receive noiseOutputToNoiseSoundControl;
#X obj 601 854 send noise4EnvToVol;
#X obj 313 646 receive noise4EnvToVol;
#X obj 579 40 bng 15 250 50 0 empty noise4Start empty 17 7 0 10 -262144
-1 -1;
#X msg 601 98 1;
#X obj 190 686 tgl 15 0 empty noise4SoundSwitch empty 17 7 0 10 -262144
-1 -1 1 1;
#X floatatom 104 423 5 0 0 0 - - -, f 5;
#X obj 44 393 clip 0.15 10000;
#X obj 123 351 * 0.15;
#X obj 185 318 tgl 15 0 empty noise4Unclip empty 17 7 0 10 -262144
-1 -1 1 1;
#X obj 128 851 *~;
#X obj 156 830 tgl 15 0 empty noise4RightChannel empty 17 7 0 10 -262144
-1 -1 1 1;
#X obj 28 852 *~;
#X obj 58 835 tgl 15 0 empty noise4LeftChannel empty 17 7 0 10 -262144
-1 -1 1 1;
#X obj 200 345 bng 15 250 50 0 empty empty empty 17 7 0 10 -262144
-1 -1;
#X obj 241 212 loadbang;
#X msg 235 279 1;
#X obj 248 314 bng 15 250 50 0 uiNoise4Unclip empty empty 17 7 0 10
-262144 -1 -1;
#X obj 34 890 send~ noise4LeftOut;
#X obj 196 886 send~ noise4RightOut;
#X obj 176 782 * 1;
#X connect 1 0 2 0;
#X connect 1 0 93 0;
#X connect 2 0 5 0;
#X connect 4 0 41 0;
#X connect 5 0 6 0;
#X connect 6 0 11 0;
#X connect 7 0 6 1;
#X connect 8 0 7 0;
#X connect 9 0 7 1;
#X connect 10 0 9 0;
#X connect 10 0 12 0;
#X connect 11 0 63 0;
#X connect 12 0 7 0;
#X connect 12 0 6 0;
#X connect 13 0 94 0;
#X connect 14 0 13 0;
#X connect 14 0 1 0;
#X connect 14 0 8 0;
#X connect 15 0 140 0;
#X connect 16 0 100 0;
#X connect 17 0 20 1;
#X connect 17 0 50 0;
#X connect 18 0 17 1;
#X connect 18 0 49 0;
#X connect 19 0 31 1;
#X connect 19 0 52 0;
#X connect 20 0 19 0;
#X connect 20 0 51 0;
#X connect 21 0 24 1;
#X connect 21 0 46 0;
#X connect 22 0 40 1;
#X connect 22 0 44 0;
#X connect 23 0 18 1;
#X connect 23 0 48 0;
#X connect 24 0 23 1;
#X connect 24 0 47 0;
#X connect 25 0 29 0;
#X connect 26 0 25 0;
#X connect 27 0 30 1;
#X connect 27 0 57 0;
#X connect 28 0 27 1;
#X connect 28 0 56 0;
#X connect 29 0 34 1;
#X connect 29 0 59 0;
#X connect 30 0 29 1;
#X connect 30 0 34 0;
#X connect 30 0 58 0;
#X connect 31 0 33 1;
#X connect 31 0 53 0;
#X connect 32 0 28 1;
#X connect 32 0 55 0;
#X connect 33 0 32 1;
#X connect 33 0 54 0;
#X connect 34 0 35 0;
#X connect 35 0 36 0;
#X connect 35 1 37 0;
#X connect 36 0 22 1;
#X connect 36 0 38 0;
#X connect 36 0 60 0;
#X connect 37 0 22 1;
#X connect 37 0 38 0;
#X connect 37 0 60 0;
#X connect 38 0 16 0;
#X connect 39 0 43 0;
#X connect 40 0 21 1;
#X connect 40 0 45 0;
#X connect 41 0 42 0;
#X connect 41 0 92 0;
#X connect 41 1 2 1;
#X connect 41 1 92 0;
#X connect 42 0 2 1;
#X connect 43 0 27 0;
#X connect 43 0 28 0;
#X connect 43 0 32 0;
#X connect 43 0 33 0;
#X connect 43 0 31 0;
#X connect 43 0 19 0;
#X connect 43 0 20 0;
#X connect 43 0 17 0;
#X connect 43 0 18 0;
#X connect 43 0 23 0;
#X connect 43 0 24 0;
#X connect 43 0 21 0;
#X connect 43 0 22 0;
#X connect 43 0 40 0;
#X connect 43 0 30 0;
#X connect 43 0 29 0;
#X connect 60 0 31 1;
#X connect 63 0 64 0;
#X connect 63 0 94 1;
#X connect 64 0 94 0;
#X connect 67 0 43 1;
#X connect 68 0 60 1;
#X connect 70 0 82 0;
#X connect 70 0 97 0;
#X connect 71 0 86 0;
#X connect 72 0 75 0;
#X connect 73 0 72 0;
#X connect 74 0 73 0;
#X connect 75 0 85 0;
#X connect 76 0 84 1;
#X connect 77 0 78 0;
#X connect 78 0 96 0;
#X connect 79 0 70 0;
#X connect 82 0 73 0;
#X connect 84 0 76 0;
#X connect 84 0 77 0;
#X connect 84 0 81 0;
#X connect 85 0 83 0;
#X connect 85 0 84 1;
#X connect 86 0 80 0;
#X connect 86 0 84 0;
#X connect 87 0 145 0;
#X connect 87 0 143 0;
#X connect 88 0 90 0;
#X connect 89 0 90 1;
#X connect 90 0 153 0;
#X connect 91 0 88 0;
#X connect 92 0 93 0;
#X connect 92 0 12 0;
#X connect 93 0 2 0;
#X connect 94 0 15 0;
#X connect 95 0 39 0;
#X connect 97 0 72 1;
#X connect 99 0 43 1;
#X connect 103 0 120 0;
#X connect 104 0 121 0;
#X connect 105 0 116 0;
#X connect 108 0 114 0;
#X connect 108 0 122 0;
#X connect 109 0 108 0;
#X connect 110 0 134 0;
#X connect 111 0 110 0;
#X connect 111 0 117 1;
#X connect 111 0 115 0;
#X connect 114 0 115 1;
#X connect 115 0 119 0;
#X connect 116 0 126 0;
#X connect 117 0 105 0;
#X connect 118 0 117 0;
#X connect 119 0 118 0;
#X connect 120 0 116 1;
#X connect 121 0 116 1;
#X connect 122 0 118 1;
#X connect 122 0 125 0;
#X connect 123 0 124 0;
#X connect 124 0 116 1;
#X connect 126 0 111 0;
#X connect 128 0 105 0;
#X connect 130 0 128 0;
#X connect 131 0 124 0;
#X connect 132 0 128 0;
#X connect 133 0 87 0;
#X connect 135 0 88 0;
#X connect 136 0 137 0;
#X connect 137 0 39 0;
#X connect 138 0 89 0;
#X connect 138 0 88 0;
#X connect 138 0 87 1;
#X connect 140 0 98 0;
#X connect 140 0 139 0;
#X connect 141 0 140 1;
#X connect 142 0 141 0;
#X connect 142 0 147 0;
#X connect 143 0 152 0;
#X connect 144 0 143 1;
#X connect 145 0 151 0;
#X connect 146 0 145 1;
#X connect 147 0 140 0;
#X connect 148 0 149 0;
#X connect 149 0 150 0;
#X connect 153 0 87 1;
#X restore 138 225 pd noiseChannel4;
#X obj 63 304 bng 45 250 50 0 noise4Start noise4Beat empty 17 7 0 10
-262144 -1 -1;
#X obj 39 283 tgl 15 0 noise4Unclip uiNoise4Unclip empty 17 7 0 10
-262144 -1 -1 1 1;
#X text 35 266 Clip;
#N canvas 141 128 1593 999 waveformChannel3 0;
#X obj 781 705 *~;
#N canvas 867 315 420 250 (subpatch) 0;
#X array custom 32 float 3;
#A 0 3 4 5 6 7 8 9 10 11 11 11 10 9 8 7 6 5 4 4 4 5 6 8 11 10 8 7 5
4 2 1 3;
#X coords 0 15 32 0 200 140 1 0 0;
#X restore 1339 33 graph;
#X text 773 21 https://puredata.info/docs/manuals/pd/x2.htm;
#X obj 771 50 vradio 15 1 0 16 empty empty empty 0 -8 0 10 -262144
-1 -1 0;
#X obj 39 517 phasor~ 440;
#X obj 128 549 +~ 1;
#X floatatom 165 449 5 0 0 0 - - -, f 5;
#X obj 751 847 tabwrite~ waveform1;
#N canvas 0 50 450 250 (subpatch) 0;
#X array waveform1 2051 float 1;
#A 0 -0.1125 -0.1125 -0.1125 -0.1125 -0.1125 -0.1125 -0.1125 -0.1125
-0.1125 -0.1125 -0.1125 -0.1125 -0.1125 -0.1125 -0.1125 -0.1125 -0.1125
-0.1125 -0.1125 -0.1125 -0.1125 -0.1125 -0.1125 -0.1125 -0.1125 -0.1125
-0.1125 -0.1125 -0.1125 -0.1125 -0.1125 -0.1125 -0.1125 -0.1125 -0.1125
-0.1125 -0.1125 -0.1125 -0.1125 -0.1125 -0.1125 -0.1125 -0.1125 -0.1125
-0.1125 -0.1125 -0.1125 -0.1125 -0.1125 -0.1125 -0.1125 -0.1125 -0.1125
-0.1125 -0.1125 -0.1125 -0.1125 -0.1125 -0.1125 -0.1125 -0.1125 -0.1125
-0.1125 -0.1125 -0.1125 -0.1125 -0.1125 -0.1125 -0.1125 -0.1125 -0.1125
-0.1125 -0.1125 -0.1125 -0.1125 -0.1125 0.35625 0.35625 0.35625 0.35625
0.35625 0.35625 0.35625 0.35625 0.35625 0.35625 0.35625 0.35625 0.35625
0.35625 0.35625 0.35625 0.35625 0.35625 0.35625 0.35625 0.35625 0.35625
0.35625 0.35625 0.35625 0.35625 0.35625 0.35625 0.35625 0.363899 0.375958
0.384167 0.386071 0.379217 0.361152 0.297111 0.215191 0.128022 0.0405096
-0.0424374 -0.113854 -0.133677 -0.141947 -0.141116 -0.13364 -0.12197
-0.1125 -0.1125 -0.1125 -0.1125 -0.1125 -0.1125 -0.1125 -0.1125 -0.1125
-0.1125 -0.1125 -0.1125 -0.1125 -0.1125 -0.1125 -0.1125 -0.1125 -0.1125
-0.1125 -0.1125 -0.1125 -0.1125 -0.1125 -0.1125 -0.1125 -0.1125 -0.1125
-0.1125 -0.1125 -0.1125 -0.1125 -0.1125 -0.1125 -0.1125 -0.1125 -0.1125
-0.1125 -0.1125 -0.1125 -0.1125 -0.1125 -0.1125 -0.1125 -0.1125 -0.1125
-0.1125 -0.1125 -0.1125 -0.1125 -0.1125 -0.1125 -0.1125 -0.1125 -0.1125
-0.1125 -0.1125 -0.1125 -0.1125 -0.1125 -0.1125 -0.1125 -0.1125 -0.1125
-0.1125 -0.1125 -0.1125 -0.1125 -0.1125 -0.1125 -0.1125 -0.1125 -0.1125
-0.1125 -0.1125 -0.1125 -0.1125 -0.1125 -0.1125 -0.1125 -0.1125 -0.1125
-0.1125 -0.1125 -0.1125 -0.1125 -0.1125 -0.1125 -0.1125 -0.1125 -0.1125
-0.1125 -0.1125 -0.1125 -0.1125 -0.1125 -0.1125 -0.1125 -0.1125 -0.1125
-0.1125 -0.1125 -0.1125 -0.1125 -0.1125 -0.1125 -0.1125 -0.1125 -0.1125
-0.1125 -0.1125 -0.1125 -0.1125 -0.1125 -0.1125 -0.1125 -0.1125 -0.1125
-0.1125 -0.1125 -0.1125 -0.1125 -0.1125 -0.1125 -0.1125 -0.1125 -0.1125
-0.1125 -0.1125 -0.1125 -0.1125 -0.1125 -0.1125 -0.1125 0.35625 0.35625
0.35625 0.35625 0.35625 0.35625 0.35625 0.35625 0.35625 0.35625 0.35625
0.35625 0.35625 0.35625 0.35625 0.35625 0.35625 0.35625 0.35625 0.35625
0.35625 0.35625 0.35625 0.35625 0.35625 0.35625 0.35625 0.35625 0.356615
0.369737 0.380339 0.385968 0.38417 0.372492 0.337618 0.260598 0.175667
0.0877324 0.00170028 -0.077522 -0.124513 -0.138746 -0.142548 -0.138373
-0.128673 -0.115903 -0.1125 -0.1125 -0.1125 -0.1125 -0.1125 -0.1125
-0.1125 -0.1125 -0.1125 -0.1125 -0.1125 -0.1125 -0.1125 -0.1125 -0.1125
-0.1125 -0.1125 -0.1125 -0.1125 -0.1125 -0.1125 -0.1125 -0.1125 -0.1125
-0.1125 -0.1125 -0.1125 -0.1125 -0.1125 -0.1125 -0.1125 -0.1125 -0.1125
-0.1125 -0.1125 -0.1125 -0.1125 -0.1125 -0.1125 -0.1125 -0.1125 -0.1125
-0.1125 -0.1125 -0.1125 -0.1125 -0.1125 -0.1125 -0.1125 -0.1125 -0.1125
-0.1125 -0.1125 -0.1125 -0.1125 -0.1125 -0.1125 -0.1125 -0.1125 -0.1125
-0.1125 -0.1125 -0.1125 -0.1125 -0.1125 -0.1125 -0.1125 -0.1125 -0.1125
-0.1125 -0.1125 -0.1125 -0.1125 -0.1125 -0.1125 -0.1125 -0.1125 -0.1125
-0.1125 -0.1125 -0.1125 -0.1125 -0.1125 -0.1125 -0.1125 -0.1125 -0.1125
-0.1125 -0.1125 -0.1125 -0.1125 -0.1125 -0.1125 -0.1125 -0.1125 -0.1125
-0.1125 -0.1125 -0.1125 -0.1125 -0.1125 -0.1125 -0.1125 -0.1125 -0.1125
-0.1125 -0.1125 -0.1125 -0.1125 -0.1125 -0.1125 -0.1125 -0.1125 -0.1125
-0.1125 -0.1125 -0.1125 -0.1125 -0.1125 -0.1125 -0.1125 -0.1125 -0.1125
-0.1125 -0.1125 -0.1125 -0.1125 -0.1125 -0.1125 -0.1125 -0.1125 -0.1125
0.35625 0.35625 0.35625 0.35625 0.35625 0.35625 0.35625 0.35625 0.35625
0.35625 0.35625 0.35625 0.35625 0.35625 0.35625 0.35625 0.35625 0.35625
0.35625 0.35625 0.35625 0.35625 0.35625 0.35625 0.35625 0.35625 0.35625
0.35625 0.35625 0.362774 0.375048 0.38368 0.386215 0.380202 0.363185
0.303677 0.22243 0.135516 0.0478418 -0.0356838 -0.110154 -0.132476
-0.141632 -0.14148 -0.134473 -0.123064 -0.1125 -0.1125 -0.1125 -0.1125
-0.1125 -0.1125 -0.1125 -0.1125 -0.1125 -0.1125 -0.1125 -0.1125 -0.1125
-0.1125 -0.1125 -0.1125 -0.1125 -0.1125 -0.1125 -0.1125 -0.1125 -0.1125
-0.1125 -0.1125 -0.1125 -0.1125 -0.1125 -0.1125 -0.1125 -0.1125 -0.1125
-0.1125 -0.1125 -0.1125 -0.1125 -0.1125 -0.1125 -0.1125 -0.1125 -0.1125
-0.1125 -0.1125 -0.1125 -0.1125 -0.1125 -0.1125 -0.1125 -0.1125 -0.1125
-0.1125 -0.1125 -0.1125 -0.1125 -0.1125 -0.1125 -0.1125 -0.1125 -0.1125
-0.1125 -0.1125 -0.1125 -0.1125 -0.1125 -0.1125 -0.1125 -0.1125 -0.1125
-0.1125 -0.1125 -0.1125 -0.1125 -0.1125 -0.1125 -0.1125 -0.1125 -0.1125
-0.1125 -0.1125 -0.1125 -0.1125 -0.1125 -0.1125 -0.1125 -0.1125 -0.1125
-0.1125 -0.1125 -0.1125 -0.1125 -0.1125 -0.1125 -0.1125 -0.1125 -0.1125
-0.1125 -0.1125 -0.1125 -0.1125 -0.1125 -0.1125 -0.1125 -0.1125 -0.1125
-0.1125 -0.1125 -0.1125 -0.1125 -0.1125 -0.1125 -0.1125 -0.1125 -0.1125
-0.1125 -0.1125 -0.1125 -0.1125 -0.1125 -0.1125 -0.1125 -0.1125 -0.1125
-0.1125 -0.1125 -0.1125 -0.1125 -0.1125 -0.1125 -0.1125 -0.1125 -0.1125
-0.1125 -0.1125 -0.1125 0.35625 0.35625 0.35625 0.35625 0.35625 0.35625
0.35625 0.35625 0.35625 0.35625 0.35625 0.35625 0.35625 0.35625 0.35625
0.35625 0.35625 0.35625 0.35625 0.35625 0.35625 0.35625 0.35625 0.35625
0.35625 0.35625 0.35625 0.35625 0.35625 0.368685 0.379597 0.385744
0.384673 0.37393 0.343645 0.267524 0.183075 0.0952045 0.0088194 -0.0711729
-0.122743 -0.137976 -0.14257 -0.138977 -0.129652 -0.117048 -0.1125
-0.1125 -0.1125 -0.1125 -0.1125 -0.1125 -0.1125 -0.1125 -0.1125 -0.1125
-0.1125 -0.1125 -0.1125 -0.1125 -0.1125 -0.1125 -0.1125 -0.1125 -0.1125
-0.1125 -0.1125 -0.1125 -0.1125 -0.1125 -0.1125 -0.1125 -0.1125 -0.1125
-0.1125 -0.1125 -0.1125 -0.1125 -0.1125 -0.1125 -0.1125 -0.1125 -0.1125
-0.1125 -0.1125 -0.1125 -0.1125 -0.1125 -0.1125 -0.1125 -0.1125 -0.1125
-0.1125 -0.1125 -0.1125 -0.1125 -0.1125 -0.1125 -0.1125 -0.1125 -0.1125
-0.1125 -0.1125 -0.1125 -0.1125 -0.1125 -0.1125 -0.1125 -0.1125 -0.1125
-0.1125 -0.1125 -0.1125 -0.1125 -0.1125 -0.1125 -0.1125 -0.1125 -0.1125
-0.1125 -0.1125 -0.1125 -0.1125 -0.1125 -0.1125 -0.1125 -0.1125 -0.1125
-0.1125 -0.1125 -0.1125 -0.1125 -0.1125 -0.1125 -0.1125 -0.1125 -0.1125
-0.1125 -0.1125 -0.1125 -0.1125 -0.1125 -0.1125 -0.1125 -0.1125 -0.1125
-0.1125 -0.1125 -0.1125 -0.1125 -0.1125 -0.1125 -0.1125 -0.1125 -0.1125
-0.1125 -0.1125 -0.1125 -0.1125 -0.1125 -0.1125 -0.1125 -0.1125 -0.1125
-0.1125 -0.1125 -0.1125 -0.1125 -0.1125 -0.1125 -0.1125 -0.1125 -0.1125
-0.1125 -0.1125 -0.1125 -0.1125 -0.1125 0.35625 0.35625 0.35625 0.35625
0.35625 0.35625 0.35625 0.35625 0.35625 0.35625 0.35625 0.35625 0.35625
0.35625 0.35625 0.35625 0.35625 0.35625 0.35625 0.35625 0.35625 0.35625
0.35625 0.35625 0.35625 0.35625 0.35625 0.35625 0.35625 0.361641 0.374112
0.383148 0.386298 0.381107 0.365121 0.310167 0.229628 0.143004 0.0552043
-0.0288649 -0.104297 -0.131189 -0.14125 -0.141794 -0.135274 -0.124145
-0.1125 -0.1125 -0.1125 -0.1125 -0.1125 -0.1125 -0.1125 -0.1125 -0.1125
-0.1125 -0.1125 -0.1125 -0.1125 -0.1125 -0.1125 -0.1125 -0.1125 -0.1125
-0.1125 -0.1125 -0.1125 -0.1125 -0.1125 -0.1125 -0.1125 -0.1125 -0.1125
-0.1125 -0.1125 -0.1125 -0.1125 -0.1125 -0.1125 -0.1125 -0.1125 -0.1125
-0.1125 -0.1125 -0.1125 -0.1125 -0.1125 -0.1125 -0.1125 -0.1125 -0.1125
-0.1125 -0.1125 -0.1125 -0.1125 -0.1125 -0.1125 -0.1125 -0.1125 -0.1125
-0.1125 -0.1125 -0.1125 -0.1125 -0.1125 -0.1125 -0.1125 -0.1125 -0.1125
-0.1125 -0.1125 -0.1125 -0.1125 -0.1125 -0.1125 -0.1125 -0.1125 -0.1125
-0.1125 -0.1125 -0.1125 -0.1125 -0.1125 -0.1125 -0.1125 -0.1125 -0.1125
-0.1125 -0.1125 -0.1125 -0.1125 -0.1125 -0.1125 -0.1125 -0.1125 -0.1125
-0.1125 -0.1125 -0.1125 -0.1125 -0.1125 -0.1125 -0.1125 -0.1125 -0.1125
-0.1125 -0.1125 -0.1125 -0.1125 -0.1125 -0.1125 -0.1125 -0.1125 -0.1125
-0.1125 -0.1125 -0.1125 -0.1125 -0.1125 -0.1125 -0.1125 -0.1125 -0.1125
-0.1125 -0.1125 -0.1125 -0.1125 -0.1125 -0.1125 -0.1125 -0.1125 -0.1125
-0.1125 -0.1125 -0.1125 -0.1125 -0.1125 -0.1125 -0.1125 0.35625 0.35625
0.35625 0.35625 0.35625 0.35625 0.35625 0.35625 0.35625 0.35625 0.35625
0.35625 0.35625 0.35625 0.35625 0.35625 0.35625 0.35625 0.35625 0.35625
0.35625 0.35625 0.35625 0.35625 0.35625 0.35625 0.35625 0.35625 0.35625
0.367616 0.37882;
#A 1000 0.385468 0.385106 0.375281 0.349575 0.274389 0.190458 0.102687
0.015985 -0.0647416 -0.120878 -0.137129 -0.142532 -0.13954 -0.130607
-0.118186 -0.1125 -0.1125 -0.1125 -0.1125 -0.1125 -0.1125 -0.1125 -0.1125
-0.1125 -0.1125 -0.1125 -0.1125 -0.1125 -0.1125 -0.1125 -0.1125 -0.1125
-0.1125 -0.1125 -0.1125 -0.1125 -0.1125 -0.1125 -0.1125 -0.1125 -0.1125
-0.1125 -0.1125 -0.1125 -0.1125 -0.1125 -0.1125 -0.1125 -0.1125 -0.1125
-0.1125 -0.1125 -0.1125 -0.1125 -0.1125 -0.1125 -0.1125 -0.1125 -0.1125
-0.1125 -0.1125 -0.1125 -0.1125 -0.1125 -0.1125 -0.1125 -0.1125 -0.1125
-0.1125 -0.1125 -0.1125 -0.1125 -0.1125 -0.1125 -0.1125 -0.1125 -0.1125
-0.1125 -0.1125 -0.1125 -0.1125 -0.1125 -0.1125 -0.1125 -0.1125 -0.1125
-0.1125 -0.1125 -0.1125 -0.1125 -0.1125 -0.1125 -0.1125 -0.1125 -0.1125
-0.1125 -0.1125 -0.1125 -0.1125 -0.1125 -0.1125 -0.1125 -0.1125 -0.1125
-0.1125 -0.1125 -0.1125 -0.1125 -0.1125 -0.1125 -0.1125 -0.1125 -0.1125
-0.1125 -0.1125 -0.1125 -0.1125 -0.1125 -0.1125 -0.1125 -0.1125 -0.1125
-0.1125 -0.1125 -0.1125 -0.1125 -0.1125 -0.1125 -0.1125 -0.1125 -0.1125
-0.1125 -0.1125 -0.1125 -0.1125 -0.1125 -0.1125 -0.1125 -0.1125 -0.1125
-0.1125 -0.1125 -0.1125 -0.1125 -0.1125 -0.1125 -0.1125 0.35625 0.35625
0.35625 0.35625 0.35625 0.35625 0.35625 0.35625 0.35625 0.35625 0.35625
0.35625 0.35625 0.35625 0.35625 0.35625 0.35625 0.35625 0.35625 0.35625
0.35625 0.35625 0.35625 0.35625 0.35625 0.35625 0.35625 0.35625 0.35625
0.360501 0.37315 0.382574 0.38632 0.381933 0.366961 0.316577 0.236781
0.150484 0.0625938 -0.0219838 -0.0983407 -0.129816 -0.140799 -0.142057
-0.136043 -0.125209 -0.1125 -0.1125 -0.1125 -0.1125 -0.1125 -0.1125
-0.1125 -0.1125 -0.1125 -0.1125 -0.1125 -0.1125 -0.1125 -0.1125 -0.1125
-0.1125 -0.1125 -0.1125 -0.1125 -0.1125 -0.1125 -0.1125 -0.1125 -0.1125
-0.1125 -0.1125 -0.1125 -0.1125 -0.1125 -0.1125 -0.1125 -0.1125 -0.1125
-0.1125 -0.1125 -0.1125 -0.1125 -0.1125 -0.1125 -0.1125 -0.1125 -0.1125
-0.1125 -0.1125 -0.1125 -0.1125 -0.1125 -0.1125 -0.1125 -0.1125 -0.1125
-0.1125 -0.1125 -0.1125 -0.1125 -0.1125 -0.1125 -0.1125 -0.1125 -0.1125
-0.1125 -0.1125 -0.1125 -0.1125 -0.1125 -0.1125 -0.1125 -0.1125 -0.1125
-0.1125 -0.1125 -0.1125 -0.1125 -0.1125 -0.1125 -0.1125 -0.1125 -0.1125
-0.1125 -0.1125 -0.1125 -0.1125 -0.1125 -0.1125 -0.1125 -0.1125 -0.1125
-0.1125 -0.1125 -0.1125 -0.1125 -0.1125 -0.1125 -0.1125 -0.1125 -0.1125
-0.1125 -0.1125 -0.1125 -0.1125 -0.1125 -0.1125 -0.1125 -0.1125 -0.1125
-0.1125 -0.1125 -0.1125 -0.1125 -0.1125 -0.1125 -0.1125 -0.1125 -0.1125
-0.1125 -0.1125 -0.1125 -0.1125 -0.1125 -0.1125 -0.1125 -0.1125 -0.1125
-0.1125 -0.1125 -0.1125 -0.1125 -0.1125 -0.1125 -0.1125 -0.1125 -0.1125
-0.1125 0.35625 0.35625 0.35625 0.35625 0.35625 0.35625 0.35625 0.35625
0.35625 0.35625 0.35625 0.35625 0.35625 0.35625 0.35625 0.35625 0.35625
0.35625 0.35625 0.35625 0.35625 0.35625 0.35625 0.35625 0.35625 0.35625
0.35625 0.35625 0.35625 0.366532 0.37801 0.38514 0.38547 0.376545 0.355407
0.281192 0.197813 0.110177 0.0231937 -0.0582318 -0.118917 -0.136204
-0.142434 -0.14006 -0.131537 -0.119317 -0.1125 -0.1125 -0.1125 -0.1125
-0.1125 -0.1125 -0.1125 -0.1125 -0.1125 -0.1125 -0.1125 -0.1125 -0.1125
-0.1125 -0.1125 -0.1125 -0.1125 -0.1125 -0.1125 -0.1125 -0.1125 -0.1125
-0.1125 -0.1125 -0.1125 -0.1125 -0.1125 -0.1125 -0.1125 -0.1125 -0.1125
-0.1125 -0.1125 -0.1125 -0.1125 -0.1125 -0.1125 -0.1125 -0.1125 -0.1125
-0.1125 -0.1125 -0.1125 -0.1125 -0.1125 -0.1125 -0.1125 -0.1125 -0.1125
-0.1125 -0.1125 -0.1125 -0.1125 -0.1125 -0.1125 -0.1125 -0.1125 -0.1125
-0.1125 -0.1125 -0.1125 -0.1125 -0.1125 -0.1125 -0.1125 -0.1125 -0.1125
-0.1125 -0.1125 -0.1125 -0.1125 -0.1125 -0.1125 -0.1125 -0.1125 -0.1125
-0.1125 -0.1125 -0.1125 -0.1125 -0.1125 -0.1125 -0.1125 -0.1125 -0.1125
-0.1125 -0.1125 -0.1125 -0.1125 -0.1125 -0.1125 -0.1125 -0.1125 -0.1125
-0.1125 -0.1125 -0.1125 -0.1125 -0.1125 -0.1125 -0.1125 -0.1125 -0.1125
-0.1125 -0.1125 -0.1125 -0.1125 -0.1125 -0.1125 -0.1125 -0.1125 -0.1125
-0.1125 -0.1125 -0.1125 -0.1125 -0.1125 -0.1125 -0.1125 -0.1125 -0.1125
-0.1125 -0.1125 -0.1125 -0.1125 -0.1125 -0.1125 -0.1125 -0.1125 -0.1125
-0.1125 -0.1125 0.35625 0.35625 0.35625 0.35625 0.35625 0.35625 0.35625
0.35625 0.35625 0.35625 0.35625 0.35625 0.35625 0.35625 0.35625 0.35625
0.35625 0.35625 0.35625 0.35625 0.35625 0.35625 0.35625 0.35625 0.35625
0.35625 0.35625 0.35625 0.35625 0.359356 0.372166 0.381959 0.386283
0.382684 0.368707 0.322905 0.243888 0.157953 0.0700071 -0.015043 -0.0922896
-0.128355 -0.140278 -0.142268 -0.136776 -0.126257 -0.113164 -0.1125
-0.1125 -0.1125 -0.1125 -0.1125 -0.1125 -0.1125 -0.1125 -0.1125 -0.1125
-0.1125 -0.1125 -0.1125 -0.1125 -0.1125 -0.1125 -0.1125 -0.1125 -0.1125
-0.1125 -0.1125 -0.1125 -0.1125 -0.1125 -0.1125 -0.1125 -0.1125 -0.1125
-0.1125 -0.1125 -0.1125 -0.1125 -0.1125 -0.1125 -0.1125 -0.1125 -0.1125
-0.1125 -0.1125 -0.1125 -0.1125 -0.1125 -0.1125 -0.1125 -0.1125 -0.1125
-0.1125 -0.1125 -0.1125 -0.1125 -0.1125 -0.1125 -0.1125 -0.1125 -0.1125
-0.1125 -0.1125 -0.1125 -0.1125 -0.1125 -0.1125 -0.1125 -0.1125 -0.1125
-0.1125 -0.1125 -0.1125 -0.1125 -0.1125 -0.1125 -0.1125 -0.1125 -0.1125
-0.1125 -0.1125 -0.1125 -0.1125 -0.1125 -0.1125 -0.1125 -0.1125 -0.1125
-0.1125 -0.1125 -0.1125 -0.1125 -0.1125 -0.1125 -0.1125 -0.1125 -0.1125
-0.1125 -0.1125 -0.1125 -0.1125 -0.1125 -0.1125 -0.1125 -0.1125 -0.1125
-0.1125 -0.1125 -0.1125 -0.1125 -0.1125 -0.1125 -0.1125 -0.1125 -0.1125
-0.1125 -0.1125 -0.1125 -0.1125 -0.1125 -0.1125 -0.1125 -0.1125 -0.1125
-0.1125 -0.1125 -0.1125 -0.1125 -0.1125 -0.1125 -0.1125 -0.1125 -0.1125
-0.1125 -0.1125 -0.1125 -0.1125 -0.1125 0.35625 0.35625 0.35625 0.35625
0.35625 0.35625 0.35625 0.35625 0.35625 0.35625 0.35625 0.35625 0.35625
0.35625 0.35625 0.35625 0.35625 0.35625 0.35625 0.35625 0.35625 0.35625
0.35625 0.35625 0.35625 0.35625 0.35625 0.35625 0.35625 0.365434 0.377168
0.384764 0.385768 0.377725 0.358183 0.287927 0.205137 0.117673 0.0304427
-0.0516465 -0.116859 -0.135199 -0.142273 -0.140536 -0.13244 -0.120439
-0.1125 -0.1125 -0.1125 -0.1125 -0.1125 -0.1125 -0.1125 -0.1125 -0.1125
-0.1125 -0.1125 -0.1125 -0.1125 -0.1125 -0.1125 -0.1125 -0.1125 -0.1125
-0.1125 -0.1125 -0.1125 -0.1125 -0.1125 -0.1125 -0.1125 -0.1125 -0.1125
-0.1125 -0.1125 -0.1125 -0.1125 -0.1125 -0.1125 -0.1125 -0.1125 -0.1125
-0.1125 -0.1125 -0.1125 -0.1125 -0.1125 -0.1125 -0.1125 -0.1125 -0.1125
-0.1125 -0.1125 -0.1125 -0.1125 -0.1125 -0.1125 -0.1125 -0.1125 -0.1125
-0.1125 -0.1125 -0.1125 -0.1125 -0.1125 -0.1125 -0.1125 -0.1125 -0.1125
-0.1125 -0.1125 -0.1125 -0.1125 -0.1125 -0.1125 -0.1125 -0.1125 -0.1125
-0.1125 -0.1125 -0.1125 -0.1125 -0.1125 -0.1125 -0.1125 -0.1125 -0.1125
-0.1125 -0.1125 -0.1125 -0.1125 -0.1125 -0.1125 -0.1125 -0.1125 -0.1125
-0.1125 -0.1125 -0.1125 -0.1125 -0.1125 -0.1125 -0.1125 -0.1125 -0.1125
-0.1125 -0.1125 -0.1125 -0.1125 -0.1125 -0.1125 -0.1125 -0.1125 -0.1125
-0.1125 -0.1125 -0.1125 -0.1125 -0.1125 -0.1125 -0.1125 -0.1125 -0.1125
-0.1125 -0.1125 -0.1125 -0.1125 -0.1125 -0.1125 -0.1125 -0.1125 -0.1125
-0.1125 -0.1125 -0.1125 -0.1125 -0.1125 -0.1125 -0.1125 0.35625 0.35625
0.35625 0.35625 0.35625 0.35625 0.35625 0.35625 0.35625 0.35625 0.35625
0.35625 0.35625 0.35625 0.35625 0.35625 0.35625 0.35625 0.35625 0.35625
0.35625 0.35625 0.35625 0.35625 0.35625 0.35625 0.35625 0.35625 0.358206
0.371159 0.381305 0.386189 0.383359 0.37036 0.329147 0.250945 0.165407
0.0774412 -0.00804585 -0.0861468 -0.126804 -0.139686 -0.142424 -0.137473
-0.127286 -0.114317 -0.1125 -0.1125 -0.1125 -0.1125 -0.1125 -0.1125
-0.1125 -0.1125 -0.1125 -0.1125 -0.1125 -0.1125 -0.1125 -0.1125 -0.1125
-0.1125 -0.1125 -0.1125 -0.1125 -0.1125 -0.1125 -0.1125 -0.1125 -0.1125
-0.1125 -0.1125 -0.1125 -0.1125 -0.1125 -0.1125 -0.1125 -0.1125 -0.1125
-0.1125 -0.1125 -0.1125 -0.1125 -0.1125 -0.1125 -0.1125 -0.1125 -0.1125
-0.1125 -0.1125 -0.1125 -0.1125 -0.1125 -0.1125 -0.1125 -0.1125 -0.1125
-0.1125 -0.1125 -0.1125 -0.1125 -0.1125 -0.1125 -0.1125 -0.1125 -0.1125
-0.1125 -0.1125 -0.1125 -0.1125 -0.1125 -0.1125 -0.1125 -0.1125 -0.1125
-0.1125 -0.1125 -0.1125 -0.1125 -0.1125 -0.1125 -0.1125 -0.1125 -0.1125
-0.1125 -0.1125 -0.1125 -0.1125 -0.1125 -0.1125 -0.1125 -0.1125 -0.1125
-0.1125 -0.1125 -0.1125 -0.1125 -0.1125;
#A 2000 -0.1125 -0.1125 -0.1125 -0.1125 -0.1125 -0.1125 -0.1125 -0.1125
-0.1125 -0.1125 -0.1125 -0.1125 -0.1125 -0.1125 -0.1125 -0.1125 -0.1125
-0.1125 -0.1125 -0.1125 -0.1125 -0.1125 -0.1125 -0.1125 -0.1125 -0.1125
-0.1125 -0.1125 -0.1125 -0.1125 -0.1125 -0.1125 -0.1125 -0.1125 -0.1125
-0.1125 -0.1125 -0.1125 -0.1125 -0.1125 0.35625 0.35625 0.35625 0.35625
0.35625 0.35625 0.35625 0.35625 0.35625 0.35625 0.35625;
#X coords 0 1 2050 -1 200 140 1 0 0;
#X restore 327 304 graph;
#X text 772 871 writes signal to graph;
#X floatatom 886 158 5 0 0 0 - - -, f 5;
#X msg 806 54 0;
#X msg 839 54 1;
#X msg 874 54 2;
#X msg 907 54 3;
#X msg 942 54 4;
#X msg 975 54 5;
#X msg 1010 54 6;
#X msg 1043 54 7;
#X msg 806 74 8;
#X msg 839 74 9;
#X msg 874 74 10;
#X msg 907 74 11;
#X msg 975 74 13;
#X msg 1010 74 14;
#X msg 1043 74 15;
#X msg 806 96 16;
#X msg 839 96 17;
#X msg 874 96 18;
#X msg 907 96 19;
#X msg 942 96 20;
#X msg 975 96 21;
#X msg 1010 96 22;
#X msg 1043 96 23;
#X msg 806 117 24;
#X msg 839 117 25;
#X msg 874 117 26;
#X msg 907 117 27;
#X msg 942 117 28;
#X msg 975 117 29;
#X msg 1010 117 30;
#X msg 1043 117 31;
#X msg 942 74 12;
#N canvas 867 315 420 250 (subpatch) 0;
#X array triangle 32 float 3;
#A 0 0 2 4 6 8 10 12 14 15 14 12 10 8 6 4 2 0 2 4 6 8 10 12 14 15 14
10 8 6 4 2 0;
#X coords 0 15 32 0 200 140 1 0 0;
#X restore 1117 31 graph;
#X obj 47 559 *~ 31;
#N canvas 870 311 420 250 (subpatch) 0;
#X array sawtooth 32 float 3;
#A 0 0 1 2 3 4 5 6 7 8 9 10 11 12 13 14 15 0 1 2 3 4 5 6 7 8 9 10 11
12 13 14 15;
#X coords 0 15 32 0 200 140 1 0 0;
#X restore 1334 204 graph;
#N canvas 870 311 420 250 (subpatch) 0;
#X array square 32 float 1;
#A 0 15 15 15 15 15 15 15 15 15 15 15 15 15 15 15 15 0 0 0 0 0 0 0
0 0 0 0 0 0 0 0 0;
#X coords 0 15 31 0 200 140 1 0 0;
#X restore 1336 367 graph;
#N canvas 867 315 420 250 (subpatch) 0;
#X array pulse 32 float 5;
#A 0 15 15 15 15 15 15 15 15 0 0 0 0 0 0 0 0 0 0 0 0 0 0 0 0 0 0 0
0 0 0 0 0;
#X coords 0 15 31 0 200 140 1 0 0;
#X restore 1117 202 graph;
#X obj 50 631 tabread4~ triangle;
#X obj 196 632 tabread4~ pulse;
#X obj 315 629 tabread4~ sawtooth;
#X obj 462 628 tabread4~ square;
#X obj 97 604 *~;
#X obj 115 588 tgl 15 0 empty empty empty 17 7 0 10 -262144 -1 -1 0
1;
#X obj 236 604 *~;
#X obj 254 588 tgl 15 0 empty empty empty 17 7 0 10 -262144 -1 -1 0
1;
#X obj 340 605 *~;
#X obj 358 589 tgl 15 0 empty empty empty 17 7 0 10 -262144 -1 -1 0
1;
#X obj 475 593 *~;
#X obj 493 577 tgl 15 0 empty empty empty 17 7 0 10 -262144 -1 -1 0
1;
#X obj 595 584 *~;
#X obj 613 568 tgl 15 0 empty noise4Oboe empty 17 7 0 10 -262144 -1
-1 0 1;
#X obj 826 769 *~;
#X obj 862 757 tgl 15 0 empty waveform3RightChannel empty 17 7 0 10
-262144 -1 -1 1 1;
#X obj 726 770 *~;
#X obj 759 767 tgl 15 0 empty waveform3LeftChannel empty 17 7 0 10
-262144 -1 -1 1 1;
#X obj 147 750 send~ waveOutput;
#X obj 612 684 receive~ waveOutput;
#X obj 411 251 send wave4NotePlayed;
#X obj 827 818 receive wave4NotePlayed;
#X obj 718 834 bng 15 250 50 0 empty empty empty 17 7 0 10 -262144
-1 -1;
#X obj 1011 558 vsl 15 128 0 1 0 0 empty empty empty 0 -9 0 10 -262144
-1 -1 12700 1;
#X obj 1043 668 tgl 15 0 empty empty empty 17 7 0 10 -262144 -1 -1
1 1;
#X obj 1011 702 spigot;
#X obj 1091 630 tgl 15 0 empty waveform3SoundSwitch empty 17 7 0 10
-262144 -1 -1 1 1;
#X obj 267 515 bng 15 250 50 0 empty noise4Triangle empty 17 7 0 10
-262144 -1 -1;
#X obj 340 517 bng 15 250 50 0 empty noise4Pulse empty 17 7 0 10 -262144
-1 -1;
#X obj 404 518 bng 15 250 50 0 empty noise4Sawtooth empty 17 7 0 10
-262144 -1 -1;
#X msg 384 552 1;
#X msg 416 550 0;
#X msg 315 550 1;
#X msg 350 551 0;
#X msg 248 549 1;
#X msg 283 550 0;
#X msg 528 552 1;
#X msg 563 553 0;
#X msg 459 550 1;
#X msg 494 551 0;
#X obj 484 521 bng 15 250 50 0 empty noise4Square empty 17 7 0 10 -262144
-1 -1;
#X obj 554 523 bng 15 250 50 0 empty noise4Custom empty 17 7 0 10 -262144
-1 -1;
#X obj 147 673 /~ 32;
#X obj 150 716 -~ 0.8;
#X text 710 665 Sound Output Module;
#X obj 585 619 tabread4~ custom;
#X obj 936 227 tabwrite custom;
#X text 1047 407 Sound Length Module;
#X obj 1250 382 vsl 15 128 0 255 0 0 empty waveform3SetLength empty
0 -9 0 10 -262144 -1 -1 0 1;
#X obj 1329 566 tgl 15 0 empty waveform3SetLengthToggle SetLength 17
7 0 10 -262144 -1 -1 0 1;
#X obj 1200 552 -;
#X obj 1133 513 loadbang;
#X obj 1259 574 / 256;
#X obj 1332 625 - 1;
#X obj 1274 648 select 0;
#X msg 1275 674 0;
#X obj 1224 347 bng 15 250 50 0 empty wave4NotePlayed empty 17 7 0
10 -262144 -1 -1;
#X obj 1403 693 bng 15 250 50 0 empty empty empty 17 7 0 10 -262144
-1 -1;
#X floatatom 1200 672 5 0 0 0 - - -, f 5;
#X obj 1203 511 bng 15 250 50 0 empty empty empty 17 7 0 10 -262144
-1 -1;
#X floatatom 1206 632 5 0 0 0 - - -, f 5;
#X obj 1274 626 int;
#X obj 1239 539 int;
#X obj 1253 709 send waveform3CutOff;
#X obj 816 353 receive waveform3CutOff;
#X msg 1189 440 1;
#X text 334 462 Waveform Generation Module;
#X obj 143 354 /;
#X msg 104 296 2048;
#X obj 143 324 -;
#X obj 143 296 bng 15 250 50 0 empty empty empty 17 7 0 10 -262144
-1 -1;
#X msg 67 165 1767;
#X msg 104 216 1783;
#X msg 149 216 1797;
#X msg 178 175 1811;
#X msg 195 217 1825;
#X msg 217 178 1837;
#X msg 238 218 1849;
#X msg 258 179 1860;
#X msg 280 218 1871;
#X msg 326 214 1881;
#X msg 344 175 1890;
#X msg 365 217 1899;
#X text 184 429 output frq;
#X obj 184 296 int;
#X obj 146 397 int;
#X msg 58 215 1751;
#X obj 190 267 hsl 128 15 0 2047 0 0 empty empty empty -2 -8 0 10 -262144
-1 -1 0 0;
#X obj 183 245 hsl 128 15 0 2047 0 0 empty freq empty -2 -8 0 10 -262144
-1 -1 0 0;
#X obj 31 191 bng 15 250 50 0 empty waveform3a empty 17 7 0 10 -262144
-1 -1;
#X obj 69 148 bng 15 250 50 0 empty waveform3aq empty 17 7 0 10 -262144
-1 -1;
#X obj 98 191 bng 15 250 50 0 empty waveform3b empty 17 7 0 10 -262144
-1 -1;
#X obj 142 193 bng 15 250 50 0 empty waveform3c empty 17 7 0 10 -262144
-1 -1;
#X obj 176 146 bng 15 250 50 0 empty waveform3cq empty 17 7 0 10 -262144
-1 -1;
#X obj 197 196 bng 15 250 50 0 empty waveform3d empty 17 7 0 10 -262144
-1 -1;
#X obj 221 148 bng 15 250 50 0 empty waveform3dq empty 17 7 0 10 -262144
-1 -1;
#X obj 243 201 bng 15 250 50 0 empty waveform3e empty 17 7 0 10 -262144
-1 -1;
#X obj 266 159 bng 15 250 50 0 empty waveform3eq empty 17 7 0 10 -262144
-1 -1;
#X obj 285 203 bng 15 250 50 0 empty waveform3f empty 17 7 0 10 -262144
-1 -1;
#X obj 324 194 bng 15 250 50 0 empty waveform3g empty 17 7 0 10 -262144
-1 -1;
#X obj 358 150 bng 15 250 50 0 empty waveform3gq empty 17 7 0 10 -262144
-1 -1;
#X obj 388 194 bng 15 250 50 0 empty waveform3a2 empty 17 7 0 10 -262144
-1 -1;
#X obj 39 258 loadbang;
#X text 49 20 Frequency Generation Module;
#X msg 71 328 65536;
#X msg 1138 544 256;
#X obj 1258 597 * 250;
#X obj 1326 601 metro 4;
#X obj 718 918 send~ waveform3RightOut;
#X obj 551 918 send~ waveform3LeftOut;
#X obj 1052 765 * 1;
#X obj 1287 782 hradio 15 1 0 4 empty waveform3VolumeSelect 0_25_50_100%
0 -8 0 10 -262144 -1 -1 3;
#X obj 1287 802 select 0 1 2 3;
#X msg 1261 846 0;
#X msg 1304 849 0.25;
#X msg 1359 850 0.5;
#X msg 1396 852 1;
#X obj 1244 909 send waveform4SendVolume;
#X obj 1087 732 receive waveform4SendVolume;
#X obj 1052 743 bng 15 250 50 0 empty empty empty 17 7 0 10 -262144
-1 -1;
#X text 91 71 Frequency Picker;
#X text 231 58 A @ 220 to 440;
#X text 857 269 Interface for custom waveform;
#X obj 794 445 expr if($f1 ==0 \, 0 \, 1 );
#X obj 831 474 select 0;
#X obj 853 534 line;
#X obj 833 569 bng 15 250 50 0 empty empty empty 17 7 0 10 -262144
-1 -1;
#X text 811 425 Envelope to stop pop;
#X floatatom 878 573 5 0 0 0 - - -, f 5;
#X obj 1302 529 send waveform3CutOff;
#X msg 1295 453 1;
#X msg 901 499 1 50;
#X obj 737 508 bng 15 250 50 0 empty empty empty 17 7 0 10 -262144
-1 -1;
#X msg 825 506 0 70;
#X connect 0 0 7 0;
#X connect 0 0 64 0;
#X connect 0 0 62 0;
#X connect 3 0 94 0;
#X connect 4 0 44 0;
#X connect 5 0 52 0;
#X connect 5 0 60 0;
#X connect 5 0 58 0;
#X connect 5 0 56 0;
#X connect 5 0 54 0;
#X connect 6 0 4 0;
#X connect 10 0 94 1;
#X connect 11 0 10 0;
#X connect 12 0 10 0;
#X connect 13 0 10 0;
#X connect 14 0 10 0;
#X connect 15 0 10 0;
#X connect 16 0 10 0;
#X connect 17 0 10 0;
#X connect 18 0 10 0;
#X connect 19 0 10 0;
#X connect 20 0 10 0;
#X connect 21 0 10 0;
#X connect 22 0 10 0;
#X connect 23 0 10 0;
#X connect 24 0 10 0;
#X connect 25 0 10 0;
#X connect 26 0 10 0;
#X connect 27 0 10 0;
#X connect 28 0 10 0;
#X connect 29 0 10 0;
#X connect 30 0 10 0;
#X connect 31 0 10 0;
#X connect 32 0 10 0;
#X connect 33 0 10 0;
#X connect 34 0 10 0;
#X connect 35 0 10 0;
#X connect 36 0 10 0;
#X connect 37 0 10 0;
#X connect 38 0 10 0;
#X connect 39 0 10 0;
#X connect 40 0 10 0;
#X connect 41 0 10 0;
#X connect 42 0 10 0;
#X connect 44 0 5 0;
#X connect 48 0 90 0;
#X connect 49 0 90 0;
#X connect 50 0 90 0;
#X connect 51 0 90 0;
#X connect 52 0 48 0;
#X connect 53 0 52 1;
#X connect 54 0 49 0;
#X connect 55 0 54 1;
#X connect 56 0 50 0;
#X connect 57 0 56 1;
#X connect 58 0 51 0;
#X connect 59 0 58 1;
#X connect 60 0 93 0;
#X connect 61 0 60 1;
#X connect 62 0 156 0;
#X connect 63 0 62 1;
#X connect 64 0 157 0;
#X connect 65 0 64 1;
#X connect 67 0 0 0;
#X connect 69 0 70 0;
#X connect 70 0 7 0;
#X connect 71 0 73 0;
#X connect 72 0 73 1;
#X connect 73 0 158 0;
#X connect 74 0 71 0;
#X connect 74 0 72 0;
#X connect 74 0 0 1;
#X connect 75 0 82 0;
#X connect 75 0 83 0;
#X connect 76 0 80 0;
#X connect 76 0 81 0;
#X connect 77 0 78 0;
#X connect 77 0 79 0;
#X connect 78 0 57 0;
#X connect 79 0 61 0;
#X connect 79 0 59 0;
#X connect 79 0 55 0;
#X connect 79 0 53 0;
#X connect 80 0 55 0;
#X connect 81 0 53 0;
#X connect 81 0 57 0;
#X connect 81 0 59 0;
#X connect 81 0 61 0;
#X connect 82 0 53 0;
#X connect 83 0 55 0;
#X connect 83 0 57 0;
#X connect 83 0 59 0;
#X connect 83 0 61 0;
#X connect 84 0 61 0;
#X connect 85 0 59 0;
#X connect 85 0 57 0;
#X connect 85 0 55 0;
#X connect 85 0 53 0;
#X connect 86 0 59 0;
#X connect 87 0 61 0;
#X connect 87 0 57 0;
#X connect 87 0 55 0;
#X connect 87 0 53 0;
#X connect 88 0 86 0;
#X connect 88 0 87 0;
#X connect 89 0 84 0;
#X connect 89 0 85 0;
#X connect 90 0 91 0;
#X connect 91 0 66 0;
#X connect 93 0 90 0;
#X connect 96 0 107 0;
#X connect 96 0 110 0;
#X connect 97 0 155 0;
#X connect 98 0 100 0;
#X connect 99 0 153 0;
#X connect 100 0 154 0;
#X connect 101 0 109 1;
#X connect 102 0 103 0;
#X connect 103 0 111 0;
#X connect 104 0 96 0;
#X connect 104 0 113 0;
#X connect 104 0 178 0;
#X connect 107 0 153 0;
#X connect 109 0 101 0;
#X connect 109 0 102 0;
#X connect 109 0 106 0;
#X connect 110 0 98 1;
#X connect 112 0 171 0;
#X connect 113 0 71 0;
#X connect 115 0 133 0;
#X connect 116 0 117 0;
#X connect 117 0 115 1;
#X connect 118 0 117 0;
#X connect 118 0 115 0;
#X connect 119 0 136 0;
#X connect 120 0 136 0;
#X connect 121 0 136 0;
#X connect 122 0 136 0;
#X connect 123 0 136 0;
#X connect 124 0 136 0;
#X connect 125 0 136 0;
#X connect 126 0 136 0;
#X connect 127 0 136 0;
#X connect 128 0 136 0;
#X connect 129 0 136 0;
#X connect 130 0 136 0;
#X connect 132 0 117 1;
#X connect 133 0 6 0;
#X connect 134 0 136 0;
#X connect 135 0 132 0;
#X connect 135 0 118 0;
#X connect 136 0 135 0;
#X connect 136 0 68 0;
#X connect 137 0 134 0;
#X connect 138 0 119 0;
#X connect 139 0 120 0;
#X connect 140 0 121 0;
#X connect 141 0 122 0;
#X connect 142 0 123 0;
#X connect 143 0 124 0;
#X connect 144 0 125 0;
#X connect 145 0 126 0;
#X connect 146 0 127 0;
#X connect 147 0 128 0;
#X connect 148 0 129 0;
#X connect 149 0 130 0;
#X connect 150 0 116 0;
#X connect 150 0 152 0;
#X connect 152 0 115 0;
#X connect 153 0 98 0;
#X connect 154 0 108 0;
#X connect 154 0 109 1;
#X connect 155 0 105 0;
#X connect 155 0 109 0;
#X connect 158 0 0 1;
#X connect 159 0 160 0;
#X connect 160 0 161 0;
#X connect 160 1 162 0;
#X connect 160 2 163 0;
#X connect 160 3 164 0;
#X connect 161 0 165 0;
#X connect 162 0 165 0;
#X connect 163 0 165 0;
#X connect 164 0 165 0;
#X connect 166 0 158 1;
#X connect 166 0 167 0;
#X connect 167 0 158 0;
#X connect 171 0 172 0;
#X connect 172 0 180 0;
#X connect 172 0 181 0;
#X connect 172 1 179 0;
#X connect 173 0 174 0;
#X connect 173 0 176 0;
#X connect 173 0 71 0;
#X connect 178 0 177 0;
#X connect 179 0 173 0;
#X connect 180 0 181 0;
#X connect 181 0 173 0;
#X restore 604 146 pd waveformChannel3;
#X text 629 46 triangle;
#X text 652 84 pulse;
#X text 642 64 square;
#X text 635 104 sawtooth;
#X obj 698 47 bng 15 250 50 0 noise4Triangle empty empty 17 7 0 10
-262144 -1 -1;
#X obj 700 67 bng 15 250 50 0 noise4Square empty empty 17 7 0 10 -262144
-1 -1;
#X obj 700 86 bng 15 250 50 0 noise4Pulse empty empty 17 7 0 10 -262144
-1 -1;
#X obj 703 105 bng 15 250 50 0 noise4Sawtooth empty empty 17 7 0 10
-262144 -1 -1;
#X obj 706 124 bng 15 250 50 0 noise4Custom empty empty 17 7 0 10 -262144
-1 -1;
#X text 426 473 Waveform 3;
#X text 647 124 custom;
#X text 135 322 Dividing Ration of Freq;
#X obj 599 35 vsl 15 64 0 255 0 0 waveform3SetLength empty Set_Length
0 -9 0 10 -4032 -1 -1 0 1;
#X obj 597 -5 tgl 15 0 waveform3SetLengthToggle empty Use_Length 17
7 0 10 -4032 -1 -1 0 1;
#X text 592 -25 Nibble WaveForm Channel 3;
#N canvas 850 577 450 300 misc 0;
#X obj 150 61 loadbang;
#X msg 150 83 0;
#X obj 150 105 send uiInitialVolume;
#X obj 296 104 send overrideVolume;
#X connect 0 0 1 0;
#X connect 1 0 2 0;
#X connect 1 0 3 0;
#X restore 452 283 pd misc;
#N canvas 779 310 1007 515 finalMixer 0;
#X floatatom 376 260 5 0 1 0 Volume_override overrideVolume -, f 5
;
#X obj 469 286 *~;
#X obj 478 250 /~ 4;
#X obj 239 242 /~ 4;
#X obj 241 280 *~;
#X obj 327 381 dac~;
#X obj 103 -22 receive~ pulse1LeftOut;
#X obj 102 183 receive~ noise4LeftOut;
#X obj 518 -28 receive~ pulse1RightOut;
#X obj 534 187 receive~ noise4RightOut;
#X obj 84 100 receive~ waveform3LeftOut;
#X obj 533 117 receive~ waveform3RightOut;
#X obj 111 52 receive~ pulse2LeftOut;
#X obj 514 51 receive~ pulse2RightOut;
#X obj 21 21 tgl 15 0 empty dsp empty 17 7 0 10 -262144 -1 -1 1 1;
#X msg 21 43 \; pd dsp \$1;
#X obj 318 9 *~;
#X obj 423 34 *~;
#X obj 321 83 *~;
#X obj 408 83 *~;
#X obj 317 166 *~;
#X obj 412 166 *~;
#X obj 322 223 *~;
#X obj 409 223 *~;
#X obj 372 176 vsl 15 50 0 1 0 0 empty noise4VolumeCheater empty 0
-9 0 10 -262144 -1 -1 4900 1;
#X obj 370 -48 vsl 15 50 0 1 0 0 empty pulse1VolumeCheater empty 0
-9 0 10 -262144 -1 -1 4900 1;
#X obj 370 28 vsl 15 50 0 1 0 0 empty pulse2VolumeCheater empty 0 -9
0 10 -262144 -1 -1 4900 1;
#X obj 371 112 vsl 15 50 0 1 0 0 empty waveform3VolumeCheater empty
0 -9 0 10 -262144 -1 -1 4900 1;
#X text 703 -4 Final mixer for all audio signals They come from each
of their individual modules and override volumes are applied before
being sent to the DAC.;
#X connect 0 0 1 1;
#X connect 0 0 4 1;
#X connect 1 0 5 1;
#X connect 2 0 1 0;
#X connect 3 0 4 0;
#X connect 4 0 5 0;
#X connect 6 0 16 0;
#X connect 7 0 22 0;
#X connect 8 0 17 0;
#X connect 9 0 23 0;
#X connect 10 0 20 0;
#X connect 11 0 21 0;
#X connect 12 0 18 0;
#X connect 13 0 19 0;
#X connect 14 0 15 0;
#X connect 16 0 3 0;
#X connect 17 0 2 0;
#X connect 18 0 3 0;
#X connect 19 0 2 0;
#X connect 20 0 3 0;
#X connect 21 0 2 0;
#X connect 22 0 3 0;
#X connect 23 0 2 0;
#X connect 24 0 22 1;
#X connect 24 0 23 1;
#X connect 25 0 16 1;
#X connect 25 0 17 1;
#X connect 26 0 18 1;
#X connect 26 0 19 1;
#X connect 27 0 20 1;
#X connect 27 0 21 1;
#X restore 511 283 pd finalMixer;
#X text 698 -11 Volume;
#X obj 687 15 hradio 15 1 0 4 waveform3VolumeSelect waveform3uiInitialVolume
0_25_50_100% 0 -8 0 10 -262144 -1 -1 3;
#X obj 339 79 bng 15 250 50 0 pulse2EnvelopeUp empty + 5 7 0 10 -262144
-1 -1;
#X obj 363 81 bng 15 250 50 0 pulse2EnvelopeDown empty - 5 7 0 10 -262144
-1 -1;
#X obj 304 17 hsl 115 15 0 16 0 0 pulse2iVolume pulse2uiInitialVolume
InitialNoteVol -2 -8 0 10 -258113 -1 -1 9262 1;
#X obj 297 98 bng 15 250 50 0 pulse2wave1 empty empty 17 7 0 10 -262144
-1 -1;
#X obj 298 122 bng 15 250 50 0 pulse2wave2 empty empty 17 7 0 10 -262144
-1 -1;
#X obj 297 144 bng 15 250 50 0 pulse2wave3 empty empty 17 7 0 10 -262144
-1 -1;
#X obj 304 46 hsl 128 15 0 7.5 0 0 pulse2Envelope empty Envelop_Intensity
-2 -8 0 10 -260097 -1 -1 0 0;
#X text 321 67 Env. up/down;
#X text 318 150 0.125 pulse wave;
#X text 318 100 0.5 pulse wave;
#X text 320 121 0.25 pulse wave;
#X obj 454 101 vsl 15 64 0 63 0 0 pulse2SetLength empty Set_Length
0 -9 0 10 -4032 -1 -1 0 1;
#X obj 455 63 tgl 15 0 pulse2SetLengthToggle empty Use_Length 17 7
0 10 -4032 -1 -1 0 1;
#N canvas 498 138 1510 875 toneChannel2 0;
#X obj 85 568 * -1;
#X obj 375 499 bng 15 250 50 0 empty pulse2wave1 empty 17 7 0 10 -262144
-1 -1;
#X obj 116 634 +~;
#X obj 237 669 -~ 1;
#X obj 624 598 *~;
#X obj 670 422 vsl 15 128 0 1 0 0 empty empty empty 0 -9 0 10 -262144
-1 -1 0 1;
#X obj 149 568 phasor~;
#X obj 118 371 /;
#X msg 79 313 2048;
#X msg 46 345 131072;
#X msg 316 543 0;
#X obj 373 552 bng 15 250 50 0 empty pulse2wave2 empty 17 7 0 10 -262144
-1 -1;
#X obj 373 610 bng 15 250 50 0 empty pulse2wave3 empty 17 7 0 10 -262144
-1 -1;
#X msg 323 634 0;
#X msg 373 522 0.5;
#X msg 316 573 0;
#X obj 118 341 -;
#X obj 118 313 bng 15 250 50 0 empty empty empty 17 7 0 10 -262144
-1 -1;
#X obj 149 598 phasor~;
#X msg 373 638 0.875;
#X msg 373 580 0.75;
#X floatatom 236 365 5 0 0 0 - - -, f 5;
#X msg 42 182 1767;
#X msg 79 233 1783;
#X msg 124 233 1797;
#X msg 153 192 1811;
#X msg 170 234 1825;
#X msg 192 195 1837;
#X msg 213 235 1849;
#X msg 233 196 1860;
#X msg 255 235 1871;
#X msg 301 231 1881;
#X msg 319 192 1890;
#X msg 340 234 1899;
#X obj 702 532 tgl 15 0 empty empty empty 17 7 0 10 -262144 -1 -1 1
1;
#X obj 670 566 spigot;
#X text 249 478 square wave variants;
#X obj 121 543 * 1;
#X text 215 392 output frq;
#X obj 159 313 int;
#X obj 143 402 int;
#X msg 33 232 1751;
#X text 33 521 Frequency to [] converter;
#X text 159 342 The GB Square Freq Calculatr;
#X text 200 161 A @ 440 to 880;
#X text 1252 612 +;
#X text 1314 614 -;
#X obj 1270 615 bng 15 250 50 0 empty pulse2EnvelopeUp empty 17 7 0
10 -262144 -1 -1;
#X obj 1332 619 bng 15 250 50 0 empty pulse2EnvelopeDown empty 17 7
0 10 -262144 -1 -1;
#X floatatom 1138 609 5 0 15 0 - - -, f 5;
#X text 1088 549 initial volume;
#X text 1251 484 envelope sweep;
#X obj 1223 567 / 64;
#X obj 1241 507 hradio 15 1 0 8 empty pulse2Envelope empty 0 -8 0 10
-262144 -1 -1 4.01575;
#X obj 1049 495 receive pulse1toEnv;
#X obj 1078 535 bng 15 250 50 0 empty empty empty 17 7 0 10 -262144
-1 -1;
#X obj 1184 801 / 16;
#X floatatom 1130 785 5 0 0 0 - - -, f 5;
#X text 1068 739 current vol;
#X text 1244 594 Up/down volume Envelope;
#X obj 1221 624 tgl 15 0 empty empty empty 17 7 0 10 -262144 -1 -1
0 0.015625;
#X obj 1197 714 spigot;
#X obj 1162 678 +;
#X obj 1097 680 int;
#X obj 1175 644 delay;
#X obj 1087 652 bng 15 250 50 0 empty empty empty 17 7 0 10 -262144
-1 -1;
#X msg 1261 652 1;
#X msg 1322 660 -1;
#X obj 1184 596 * 1000;
#X obj 1383 620 bng 15 250 50 0 empty empty empty 17 7 0 10 -262144
-1 -1;
#X msg 1370 663 0;
#X floatatom 1288 764 5 0 0 0 - - -, f 5;
#X obj 1174 748 clip 0 15;
#X text 1089 605 v(t-1);
#X floatatom 1088 571 5 0 15 0 - - -, f 5;
#X text 1064 464 Sound Envelop System;
#X obj 165 284 hsl 128 15 0 2047 0 0 empty empty empty -2 -8 0 10 -262144
-1 -1 0 0;
#X obj 158 262 hsl 128 15 0 2047 0 0 empty freq empty -2 -8 0 10 -262144
-1 -1 0 0;
#X obj 1006 477 hsl 64 15 0 127 0 0 empty pulse2iVolume empty -2 -8
0 10 -262144 -1 -1 645 1;
#X obj 6 208 bng 15 250 50 0 empty pulse2a empty 17 7 0 10 -262144
-1 -1;
#X obj 44 165 bng 15 250 50 0 empty pulse2aq empty 17 7 0 10 -262144
-1 -1;
#X obj 73 208 bng 15 250 50 0 empty pulse2b empty 17 7 0 10 -262144
-1 -1;
#X obj 117 210 bng 15 250 50 0 empty pulse2c empty 17 7 0 10 -262144
-1 -1;
#X obj 151 163 bng 15 250 50 0 empty pulse2cq empty 17 7 0 10 -262144
-1 -1;
#X obj 172 213 bng 15 250 50 0 empty pulse2d empty 17 7 0 10 -262144
-1 -1;
#X obj 196 165 bng 15 250 50 0 empty pulse2dq empty 17 7 0 10 -262144
-1 -1;
#X obj 218 218 bng 15 250 50 0 empty pulse2e empty 17 7 0 10 -262144
-1 -1;
#X obj 241 176 bng 15 250 50 0 empty pulse2eq empty 17 7 0 10 -262144
-1 -1;
#X obj 260 220 bng 15 250 50 0 empty pulse2f empty 17 7 0 10 -262144
-1 -1;
#X obj 299 211 bng 15 250 50 0 empty pulse2g empty 17 7 0 10 -262144
-1 -1;
#X obj 333 167 bng 15 250 50 0 empty pulse2gq empty 17 7 0 10 -262144
-1 -1;
#X obj 363 211 bng 15 250 50 0 empty pulse2a2 empty 17 7 0 10 -262144
-1 -1;
#X obj 401 481 loadbang;
#X obj 1416 629 loadbang;
#X text 476 380 Sound Output Module \, does not have left/right speaker
control;
#X text 1148 105 Sound Length Module;
#X obj 1144 136 vsl 15 128 0 63 0 0 empty pulse1SetLength empty 0 -9
0 10 -262144 -1 -1 0 1;
#X obj 1184 298 tgl 15 0 empty pulse2SetLengthToggle SetLength 17 7
0 10 -262144 -1 -1 0 1;
#X obj 1118 286 -;
#X msg 1056 278 64;
#X obj 14 275 loadbang;
#X obj 1051 247 loadbang;
#X obj 1114 306 / 256;
#X obj 1187 357 - 1;
#X obj 1129 380 select 0;
#X msg 1130 406 0;
#X obj 1115 93 bng 15 250 50 0 empty empty empty 17 7 0 10 -262144
-1 -1;
#X obj 1259 363 bng 15 250 50 0 empty empty empty 17 7 0 10 -262144
-1 -1;
#X floatatom 1058 404 5 0 0 0 - - -, f 5;
#X obj 1121 245 bng 15 250 50 0 empty empty empty 17 7 0 10 -262144
-1 -1;
#X floatatom 1061 364 5 0 0 0 - - -, f 5;
#X obj 1129 358 int;
#X obj 1145 272 int;
#X obj 783 617 tgl 15 0 empty pulse2SoundSwitch empty 17 7 0 10 -262144
-1 -1 1 1;
#X obj 675 671 *~;
#X obj 703 650 tgl 15 0 empty pulse2RightChannel empty 17 7 0 10 -262144
-1 -1 1 1;
#X obj 575 672 *~;
#X obj 605 655 tgl 15 0 empty pulse2LeftChannel empty 17 7 0 10 -262144
-1 -1 1 1;
#X obj 1181 333 metro 4;
#X obj 1113 329 * 250;
#X obj 696 593 * 1;
#X obj 788 464 *;
#X msg 1249 151 1;
#X floatatom 760 530 5 0 0 0 - - -, f 5;
#X floatatom 761 553 5 0 0 0 - - -, f 5;
#X obj 495 715 send~ pulse2LeftOut;
#X obj 685 716 send~ pulse2RightOut;
#X text 34 141 Pulse 2 Frequency Picker;
#X text 81 469 Pulse Channel 2 Signal Generator;
#X obj 67 436 send pulse2signalGenerator;
#X obj 30 501 receive pulse2signalGenerator;
#X obj 92 737 send~ pulse2toVolume;
#X text 601 358 Pulse 2 Volume Control;
#X obj 341 309 send pulse2toEnv;
#X obj 346 288 send pulse2toSoundLength;
#X obj 726 403 receive pulse2envToVol;
#X obj 482 548 receive~ pulse2toVolume;
#X obj 1107 58 receive pulse2toSoundLength;
#X obj 1248 187 send pulse2SoundCutOff;
#X obj 1134 429 send pulse2SoundCutOff;
#X text 1198 450 comment;
#X obj 1254 816 send pulse2envToVol;
#X obj 736 497 receive pulse2iVolume;
#X obj 827 557 bng 15 250 50 0 empty empty empty 17 7 0 10 -262144
-1 -1;
#X obj 897 587 expr if($f1 ==0 \, 0 \, 1 );
#X obj 934 616 select 0;
#X obj 947 674 line;
#X obj 936 696 bng 15 250 50 0 empty empty empty 17 7 0 10 -262144
-1 -1;
#X msg 976 641 1 20;
#X msg 925 649 0 20;
#X text 914 567 Envelope to stop pop;
#X obj 845 428 receive pulse2SoundCutOff;
#X connect 0 0 18 0;
#X connect 1 0 10 0;
#X connect 1 0 14 0;
#X connect 2 0 3 0;
#X connect 3 0 131 0;
#X connect 4 0 116 0;
#X connect 4 0 114 0;
#X connect 5 0 35 0;
#X connect 6 0 2 0;
#X connect 7 0 40 0;
#X connect 8 0 16 0;
#X connect 9 0 7 0;
#X connect 10 0 6 1;
#X connect 11 0 15 0;
#X connect 11 0 20 0;
#X connect 12 0 13 0;
#X connect 12 0 19 0;
#X connect 13 0 6 1;
#X connect 14 0 18 1;
#X connect 15 0 6 1;
#X connect 16 0 7 1;
#X connect 17 0 16 0;
#X connect 17 0 7 0;
#X connect 18 0 2 1;
#X connect 19 0 18 1;
#X connect 20 0 18 1;
#X connect 22 0 77 0;
#X connect 23 0 77 0;
#X connect 24 0 77 0;
#X connect 25 0 77 0;
#X connect 26 0 77 0;
#X connect 27 0 77 0;
#X connect 28 0 77 0;
#X connect 29 0 77 0;
#X connect 30 0 77 0;
#X connect 31 0 77 0;
#X connect 32 0 77 0;
#X connect 33 0 77 0;
#X connect 34 0 35 1;
#X connect 35 0 120 0;
#X connect 37 0 6 0;
#X connect 37 0 0 0;
#X connect 39 0 16 1;
#X connect 40 0 21 0;
#X connect 40 0 129 0;
#X connect 41 0 77 0;
#X connect 47 0 66 0;
#X connect 48 0 67 0;
#X connect 49 0 62 0;
#X connect 52 0 60 0;
#X connect 52 0 68 0;
#X connect 53 0 52 0;
#X connect 54 0 55 0;
#X connect 55 0 74 0;
#X connect 56 0 141 0;
#X connect 57 0 56 0;
#X connect 57 0 63 1;
#X connect 57 0 61 0;
#X connect 60 0 61 1;
#X connect 61 0 65 0;
#X connect 62 0 72 0;
#X connect 63 0 49 0;
#X connect 64 0 63 0;
#X connect 65 0 64 0;
#X connect 66 0 62 1;
#X connect 67 0 62 1;
#X connect 68 0 64 1;
#X connect 68 0 71 0;
#X connect 69 0 70 0;
#X connect 70 0 62 1;
#X connect 72 0 57 0;
#X connect 74 0 49 0;
#X connect 76 0 39 0;
#X connect 76 0 17 0;
#X connect 77 0 76 0;
#X connect 77 0 133 0;
#X connect 77 0 134 0;
#X connect 78 0 74 0;
#X connect 79 0 41 0;
#X connect 80 0 22 0;
#X connect 81 0 23 0;
#X connect 82 0 24 0;
#X connect 83 0 25 0;
#X connect 84 0 26 0;
#X connect 85 0 27 0;
#X connect 86 0 28 0;
#X connect 87 0 29 0;
#X connect 88 0 30 0;
#X connect 89 0 31 0;
#X connect 90 0 32 0;
#X connect 91 0 33 0;
#X connect 92 0 1 0;
#X connect 93 0 70 0;
#X connect 96 0 109 0;
#X connect 96 0 112 0;
#X connect 97 0 118 0;
#X connect 98 0 102 0;
#X connect 99 0 98 0;
#X connect 100 0 8 0;
#X connect 100 0 9 0;
#X connect 101 0 99 0;
#X connect 102 0 119 0;
#X connect 103 0 111 1;
#X connect 104 0 105 0;
#X connect 105 0 139 0;
#X connect 106 0 96 0;
#X connect 106 0 122 0;
#X connect 109 0 99 0;
#X connect 111 0 103 0;
#X connect 111 0 104 0;
#X connect 111 0 108 0;
#X connect 112 0 98 1;
#X connect 113 0 34 0;
#X connect 113 0 4 1;
#X connect 113 0 143 0;
#X connect 114 0 126 0;
#X connect 115 0 114 1;
#X connect 116 0 125 0;
#X connect 117 0 116 1;
#X connect 118 0 107 0;
#X connect 118 0 111 0;
#X connect 119 0 110 0;
#X connect 119 0 111 1;
#X connect 120 0 4 1;
#X connect 121 0 5 0;
#X connect 122 0 138 0;
#X connect 123 0 124 0;
#X connect 124 0 5 0;
#X connect 130 0 37 0;
#X connect 135 0 121 0;
#X connect 136 0 4 0;
#X connect 137 0 106 0;
#X connect 142 0 123 0;
#X connect 143 0 123 0;
#X connect 144 0 145 0;
#X connect 145 0 149 0;
#X connect 145 1 148 0;
#X connect 146 0 147 0;
#X connect 146 0 121 1;
#X connect 147 0 121 0;
#X connect 148 0 146 0;
#X connect 149 0 146 0;
#X connect 151 0 144 0;
#X restore 432 -23 pd toneChannel2;
#N canvas 498 142 1311 875 toneChannel1 0;
#X obj 74 466 * -1;
#X obj 363 398 bng 15 250 50 0 empty wave1 empty 17 7 0 10 -262144
-1 -1;
#X obj 105 532 +~;
#X obj 226 567 -~ 1;
#X obj 580 678 *~;
#X obj 626 502 vsl 15 128 0 1 0 0 empty empty empty 0 -9 0 10 -262144
-1 -1 0 1;
#X obj 138 466 phasor~;
#X obj 140 248 /;
#X msg 101 190 2048;
#X msg 68 222 131072;
#X msg 305 441 0;
#X obj 362 450 bng 15 250 50 0 empty wave2 empty 17 7 0 10 -262144
-1 -1;
#X obj 362 508 bng 15 250 50 0 empty wave3 empty 17 7 0 10 -262144
-1 -1;
#X msg 312 532 0;
#X msg 362 420 0.5;
#X msg 305 471 0;
#X obj 140 218 -;
#X obj 140 190 bng 15 250 50 0 empty empty empty 17 7 0 10 -262144
-1 -1;
#X text 869 58 sweepshift (n);
#X floatatom 603 184 5 0 0 0 - - -, f 5;
#X obj 726 233 +;
#X obj 785 32 bng 15 250 50 0 empty empty empty 17 7 0 10 -262144 -1
-1;
#X floatatom 723 265 5 0 0 0 - - -, f 5;
#X obj 838 59 bng 15 250 50 0 empty empty empty 17 7 0 10 -262144 -1
-1;
#X obj 724 208 bng 15 250 50 0 empty empty empty 17 7 0 10 -262144
-1 -1;
#X obj 778 111 div;
#X floatatom 850 139 5 0 0 0 - - -, f 5;
#X obj 831 111 pow;
#X obj 878 93 hradio 15 1 0 8 empty sweepMagnitude empty 0 -8 0 10
-262144 -1 -1 0;
#X obj 138 496 phasor~;
#X msg 362 536 0.875;
#X msg 362 478 0.75;
#X floatatom 258 242 5 0 0 0 - - -, f 5;
#X obj 680 265 int;
#X msg 838 87 2;
#X text 678 81 t;
#X msg 692 82 7.83;
#X obj 659 108 *;
#X floatatom 658 135 5 0 0 0 - - -, f 5;
#X obj 669 218 delay;
#X obj 658 612 tgl 15 0 empty empty empty 17 7 0 10 -262144 -1 -1 1
1;
#X obj 626 646 spigot;
#X text 864 73 larger is smaller magnitude;
#X text 636 31 sweep speed;
#X text 629 59 higher is slower;
#X text 551 181 X(t);
#X obj 752 161 tgl 15 0 empty empty empty 17 7 0 10 -262144 -1 -1 0
7.83;
#X obj 724 188 spigot;
#X text 238 376 square wave variants;
#X obj 110 441 * 1;
#X text 237 269 output frq;
#X text 720 286 X(t+1);
#X obj 893 314 * -1, f 7;
#X obj 898 286 spigot;
#X obj 838 256 spigot;
#X msg 820 205 1;
#X msg 852 203 0;
#X msg 897 203 0;
#X text 855 179 +;
#X text 940 177 -;
#X obj 829 173 bng 15 250 50 0 empty sweepUp empty 17 7 0 10 -262144
-1 -1;
#X obj 916 176 bng 15 250 50 0 empty sweepDown empty 17 7 0 10 -262144
-1 -1;
#X obj 887 241 tgl 15 0 empty empty empty 17 7 0 10 -262144 -1 -1 0
1;
#X obj 928 242 tgl 15 0 empty empty empty 17 7 0 10 -262144 -1 -1 0
1;
#X obj 181 190 int;
#X obj 165 279 int;
#X text 22 419 Frequency to [] converter;
#X text 289 230 The GB Square Freq Calculatr;
#X text 840 151 Up/down sweep toggle;
#X msg 930 203 1;
#X text 712 140 sweep loop on/off;
#X text 556 437 Pulse 1 Volume Control;
#X obj 81 635 send~ pulse1toVolume;
#X obj 438 628 receive~ pulse1toVolume;
#X obj 19 399 receive pulse1signalGenerator;
#X obj 89 313 send pulse1signalGenerator;
#X text 70 367 Pulse Channel 1 Signal Generator;
#X obj 223 191 send pulse1toSweep;
#X obj 586 160 receive pulse1toSweep;
#X obj 367 144 receive pulse1fromSweep;
#X obj 567 285 send pulse1fromSweep;
#X obj 536 78 hradio 15 1 0 8 empty sweepDelay empty 0 -8 0 10 -262144
-1 -1 0;
#X obj 680 191 float;
#X obj 609 48 bng 15 250 50 0 empty empty empty 17 7 0 10 -262144 -1
-1;
#X text 585 1 Pulse 1 Sweep Module;
#X text 1252 612 +;
#X text 1314 614 -;
#X obj 1270 615 bng 15 250 50 0 empty envelopeUp empty 17 7 0 10 -262144
-1 -1;
#X obj 1332 619 bng 15 250 50 0 empty envelopeDown empty 17 7 0 10
-262144 -1 -1;
#X floatatom 1138 609 5 0 15 0 - - -, f 5;
#X text 1088 549 initial volume;
#X text 1251 484 envelope sweep;
#X obj 1223 567 / 64;
#X obj 1241 507 hradio 15 1 0 8 empty envelope empty 0 -8 0 10 -262144
-1 -1 4;
#X obj 1149 874 send pulse1envToVol;
#X obj 682 483 receive pulse1envToVol;
#X obj 363 186 send pulse1toEnv;
#X obj 1049 495 receive pulse1toEnv;
#X obj 1078 535 bng 15 250 50 0 empty empty empty 17 7 0 10 -262144
-1 -1;
#X obj 1194 816 / 16;
#X floatatom 1130 785 5 0 0 0 - - -, f 5;
#X text 1068 739 current vol;
#X text 1244 594 Up/down volume Envelope;
#X obj 1221 624 tgl 15 0 empty empty empty 17 7 0 10 -262144 -1 -1
0 0.015625;
#X obj 1197 714 spigot;
#X obj 1162 678 +;
#X obj 1097 680 int;
#X obj 1175 644 delay;
#X obj 1087 652 bng 15 250 50 0 empty empty empty 17 7 0 10 -262144
-1 -1;
#X msg 1261 652 1;
#X msg 1322 660 -1;
#X obj 1184 596 * 1000;
#X obj 1383 620 bng 15 250 50 0 empty empty empty 17 7 0 10 -262144
-1 -1;
#X msg 1370 663 0;
#X floatatom 1288 764 5 0 0 0 - - -, f 5;
#X obj 1174 748 clip 0 15;
#X text 1089 605 v(t-1);
#X floatatom 1088 571 5 0 15 0 - - -, f 5;
#X text 1065 462 Sound Envelop System;
#X obj 187 161 hsl 128 15 0 2047 0 0 empty empty empty -2 -8 0 10 -262144
-1 -1 0 0;
#X obj 180 139 hsl 128 15 0 2047 0 0 empty freq empty -2 -8 0 10 -262144
-1 -1 0 0;
#X obj 1021 551 hsl 64 15 0 127 0 0 empty iVolume empty -2 -8 0 10
-262144 -1 -1 645 1;
#X obj 380 388 loadbang;
#X obj 751 7 loadbang;
#X obj 1474 617 loadbang;
#X text 432 460 Sound Output Module \, does not have left/right speaker
control;
#X text 1280 62 Sound Length Module;
#X obj 1276 93 vsl 15 128 0 63 0 0 empty pulse1SetLength empty 0 -9
0 10 -262144 -1 -1 0 1;
#X obj 1316 255 tgl 15 0 empty pulse1SetLengthToggle SetLength 17 7
0 10 -262144 -1 -1 0 1;
#X obj 1250 243 -;
#X msg 1188 235 64;
#X obj 36 152 loadbang;
#X obj 1183 204 loadbang;
#X obj 1246 263 / 256;
#X obj 368 165 send pulse1toSoundLength;
#X obj 1239 15 receive pulse1toSoundLength;
#X obj 1319 314 - 1;
#X obj 1261 337 select 0;
#X msg 1262 363 0;
#X obj 849 566 receive soundCutOff;
#X obj 1247 50 bng 15 250 50 0 empty empty empty 17 7 0 10 -262144
-1 -1;
#X obj 1391 320 bng 15 250 50 0 empty empty empty 17 7 0 10 -262144
-1 -1;
#X floatatom 1190 361 5 0 0 0 - - -, f 5;
#X obj 1253 202 bng 15 250 50 0 empty empty empty 17 7 0 10 -262144
-1 -1;
#X floatatom 1193 321 5 0 0 0 - - -, f 5;
#X obj 1261 315 int;
#X obj 1277 229 int;
#X obj 738 605 tgl 15 0 empty pulse1SoundSwitch empty 17 7 0 10 -262144
-1 -1 1 1;
#X obj 631 751 *~;
#X obj 659 730 tgl 15 0 empty pulse1RightChannel empty 17 7 0 10 -262144
-1 -1 1 1;
#X obj 531 752 *~;
#X obj 561 735 tgl 15 0 empty pulse1LeftChannel empty 17 7 0 10 -262144
-1 -1 1 1;
#X obj 1313 290 metro 4;
#X obj 1245 286 * 250;
#X obj 451 795 send~ pulse1LeftOut;
#X obj 641 796 send~ pulse1RightOut;
#X obj 652 673 * 1;
#X obj 705 509 *;
#X obj 1266 386 send soundCutOff;
#X obj 1380 144 send soundCutOff;
#X text 1198 450 comment;
#X msg 1381 108 1;
#X floatatom 694 556 5 0 0 0 - - -, f 5;
#X floatatom 695 579 5 0 0 0 - - -, f 5;
#X obj 28 85 bng 15 250 50 0 empty a empty 17 7 0 10 -262144 -1 -1
;
#X msg 64 59 1767;
#X msg 101 110 1783;
#X msg 146 110 1797;
#X msg 175 69 1811;
#X msg 192 111 1825;
#X msg 214 72 1837;
#X msg 235 112 1849;
#X msg 255 73 1860;
#X msg 277 112 1871;
#X msg 323 108 1881;
#X msg 341 69 1890;
#X msg 362 111 1899;
#X msg 55 109 1751;
#X text 222 38 A @ 440 to 880;
#X text 56 19 Pulse 1 Frequency Picker;
#X obj 66 42 bng 15 250 50 0 empty aq empty 17 7 0 10 -262144 -1 -1
;
#X obj 95 85 bng 15 250 50 0 empty b empty 17 7 0 10 -262144 -1 -1
;
#X obj 139 87 bng 15 250 50 0 empty c empty 17 7 0 10 -262144 -1 -1
;
#X obj 173 40 bng 15 250 50 0 empty cq empty 17 7 0 10 -262144 -1 -1
;
#X obj 194 90 bng 15 250 50 0 empty d empty 17 7 0 10 -262144 -1 -1
;
#X obj 218 42 bng 15 250 50 0 empty dq empty 17 7 0 10 -262144 -1 -1
;
#X obj 240 95 bng 15 250 50 0 empty e empty 17 7 0 10 -262144 -1 -1
;
#X obj 263 53 bng 15 250 50 0 empty eq empty 17 7 0 10 -262144 -1 -1
;
#X obj 282 97 bng 15 250 50 0 empty f empty 17 7 0 10 -262144 -1 -1
;
#X obj 321 88 bng 15 250 50 0 empty g empty 17 7 0 10 -262144 -1 -1
;
#X obj 355 44 bng 15 250 50 0 empty gq empty 17 7 0 10 -262144 -1 -1
;
#X obj 385 88 bng 15 250 50 0 empty a2 empty 17 7 0 10 -262144 -1 -1
;
#X obj 792 595 bng 15 250 50 0 empty empty empty 17 7 0 10 -262144
-1 -1;
#X obj 657 536 receive iVolume;
#X obj 844 618 expr if($f1 ==0 \, 0 \, 1 );
#X obj 881 647 select 0;
#X obj 894 705 line;
#X obj 883 727 bng 15 250 50 0 empty empty empty 17 7 0 10 -262144
-1 -1;
#X msg 923 672 1 20;
#X msg 872 680 0 20;
#X text 861 598 Envelope to stop pop;
#X connect 0 0 29 0;
#X connect 1 0 10 0;
#X connect 1 0 14 0;
#X connect 2 0 3 0;
#X connect 3 0 72 0;
#X connect 4 0 150 0;
#X connect 4 0 148 0;
#X connect 5 0 41 0;
#X connect 6 0 2 0;
#X connect 7 0 65 0;
#X connect 8 0 16 0;
#X connect 9 0 7 0;
#X connect 10 0 6 1;
#X connect 11 0 15 0;
#X connect 11 0 31 0;
#X connect 12 0 13 0;
#X connect 12 0 30 0;
#X connect 13 0 6 1;
#X connect 14 0 29 1;
#X connect 15 0 6 1;
#X connect 16 0 7 1;
#X connect 17 0 16 0;
#X connect 17 0 7 0;
#X connect 19 0 20 1;
#X connect 19 0 47 0;
#X connect 19 0 25 0;
#X connect 20 0 22 0;
#X connect 21 0 25 0;
#X connect 22 0 33 1;
#X connect 23 0 34 0;
#X connect 24 0 20 0;
#X connect 24 0 82 0;
#X connect 25 0 54 0;
#X connect 25 0 53 0;
#X connect 27 0 21 0;
#X connect 27 0 25 1;
#X connect 27 0 26 0;
#X connect 28 0 27 1;
#X connect 28 0 23 0;
#X connect 29 0 2 1;
#X connect 30 0 29 1;
#X connect 31 0 29 1;
#X connect 33 0 80 0;
#X connect 34 0 27 0;
#X connect 36 0 37 1;
#X connect 37 0 38 0;
#X connect 38 0 46 0;
#X connect 38 0 82 1;
#X connect 39 0 33 0;
#X connect 40 0 41 1;
#X connect 41 0 156 0;
#X connect 46 0 47 1;
#X connect 47 0 24 0;
#X connect 49 0 6 0;
#X connect 49 0 0 0;
#X connect 52 0 20 0;
#X connect 53 0 52 0;
#X connect 54 0 20 0;
#X connect 55 0 62 0;
#X connect 56 0 63 0;
#X connect 57 0 62 0;
#X connect 60 0 55 0;
#X connect 60 0 56 0;
#X connect 61 0 57 0;
#X connect 61 0 69 0;
#X connect 62 0 54 1;
#X connect 63 0 53 1;
#X connect 64 0 16 1;
#X connect 65 0 32 0;
#X connect 65 0 75 0;
#X connect 69 0 63 0;
#X connect 73 0 4 0;
#X connect 74 0 49 0;
#X connect 78 0 19 0;
#X connect 79 0 119 0;
#X connect 81 0 37 0;
#X connect 81 0 83 0;
#X connect 82 0 39 0;
#X connect 83 0 36 0;
#X connect 87 0 109 0;
#X connect 88 0 110 0;
#X connect 89 0 105 0;
#X connect 92 0 103 0;
#X connect 92 0 111 0;
#X connect 93 0 92 0;
#X connect 95 0 157 0;
#X connect 97 0 98 0;
#X connect 98 0 117 0;
#X connect 99 0 94 0;
#X connect 100 0 99 0;
#X connect 100 0 106 1;
#X connect 100 0 104 0;
#X connect 103 0 104 1;
#X connect 104 0 108 0;
#X connect 105 0 115 0;
#X connect 106 0 89 0;
#X connect 107 0 106 0;
#X connect 108 0 107 0;
#X connect 109 0 105 1;
#X connect 110 0 105 1;
#X connect 111 0 107 1;
#X connect 111 0 114 0;
#X connect 112 0 113 0;
#X connect 113 0 105 1;
#X connect 115 0 100 0;
#X connect 117 0 89 0;
#X connect 119 0 77 0;
#X connect 119 0 64 0;
#X connect 119 0 17 0;
#X connect 120 0 119 0;
#X connect 120 0 96 0;
#X connect 120 0 134 0;
#X connect 121 0 117 0;
#X connect 122 0 1 0;
#X connect 123 0 36 0;
#X connect 124 0 113 0;
#X connect 127 0 143 0;
#X connect 127 0 146 0;
#X connect 128 0 152 0;
#X connect 129 0 133 0;
#X connect 130 0 129 0;
#X connect 131 0 8 0;
#X connect 131 0 9 0;
#X connect 132 0 130 0;
#X connect 133 0 153 0;
#X connect 135 0 140 0;
#X connect 136 0 145 1;
#X connect 137 0 138 0;
#X connect 138 0 158 0;
#X connect 139 0 194 0;
#X connect 140 0 127 0;
#X connect 140 0 161 0;
#X connect 143 0 130 0;
#X connect 145 0 136 0;
#X connect 145 0 137 0;
#X connect 145 0 142 0;
#X connect 146 0 129 1;
#X connect 147 0 40 0;
#X connect 147 0 4 1;
#X connect 147 0 192 0;
#X connect 148 0 155 0;
#X connect 149 0 148 1;
#X connect 150 0 154 0;
#X connect 151 0 150 1;
#X connect 152 0 141 0;
#X connect 152 0 145 0;
#X connect 153 0 144 0;
#X connect 153 0 145 1;
#X connect 156 0 4 1;
#X connect 157 0 5 0;
#X connect 161 0 159 0;
#X connect 162 0 163 0;
#X connect 163 0 5 0;
#X connect 164 0 177 0;
#X connect 165 0 120 0;
#X connect 166 0 120 0;
#X connect 167 0 120 0;
#X connect 168 0 120 0;
#X connect 169 0 120 0;
#X connect 170 0 120 0;
#X connect 171 0 120 0;
#X connect 172 0 120 0;
#X connect 173 0 120 0;
#X connect 174 0 120 0;
#X connect 175 0 120 0;
#X connect 176 0 120 0;
#X connect 177 0 120 0;
#X connect 180 0 165 0;
#X connect 181 0 166 0;
#X connect 182 0 167 0;
#X connect 183 0 168 0;
#X connect 184 0 169 0;
#X connect 185 0 170 0;
#X connect 186 0 171 0;
#X connect 187 0 172 0;
#X connect 188 0 173 0;
#X connect 189 0 174 0;
#X connect 190 0 175 0;
#X connect 191 0 176 0;
#X connect 192 0 162 0;
#X connect 193 0 162 0;
#X connect 194 0 195 0;
#X connect 195 0 199 0;
#X connect 195 1 198 0;
#X connect 196 0 157 1;
#X connect 196 0 197 0;
#X connect 197 0 157 0;
#X connect 198 0 196 0;
#X connect 199 0 196 0;
#X restore 122 -28 pd toneChannel1;
#X obj 619 508 vsl 15 50 0 1 0 0 noise4VolumeCheater oscPrepOn empty
0 -9 0 10 -262144 -1 -1 4900 1;
#X obj 104 495 vsl 15 50 0 1 0 0 pulse1VolumeCheater oscPrepOn empty
0 -9 0 10 -262144 -1 -1 4900 1;
#X obj 267 493 vsl 15 50 0 1 0 0 pulse2VolumeCheater oscPrepOn empty
0 -9 0 10 -262144 -1 -1 4900 1;
#X obj 438 502 vsl 15 50 0 1 0 0 waveform3VolumeCheater oscPrepOn empty
0 -9 0 10 -262144 -1 -1 4900 1;
#N canvas 932 364 791 448 c1Sequencer 0;
#X obj 31 324 bng 15 250 50 0 a empty empty 17 7 0 10 -262144 -1 -1
;
#X msg 67 298 1767;
#X msg 89 350 1783;
#X msg 133 345 1797;
#X msg 163 306 1811;
#X msg 195 350 1825;
#X msg 217 311 1837;
#X msg 238 351 1849;
#X msg 258 312 1860;
#X msg 280 351 1871;
#X msg 326 347 1881;
#X msg 357 306 1890;
#X msg 378 346 1899;
#X msg 28 349 1751;
#X text 177 377 A @ 440 to 880;
#X obj 69 281 bng 15 250 50 0 aq empty empty 17 7 0 10 -262144 -1 -1
;
#X obj 98 324 bng 15 250 50 0 b empty empty 17 7 0 10 -262144 -1 -1
;
#X obj 142 326 bng 15 250 50 0 c empty empty 17 7 0 10 -262144 -1 -1
;
#X obj 176 279 bng 15 250 50 0 cq empty empty 17 7 0 10 -262144 -1
-1;
#X obj 197 329 bng 15 250 50 0 d empty empty 17 7 0 10 -262144 -1 -1
;
#X obj 221 281 bng 15 250 50 0 dq empty empty 17 7 0 10 -262144 -1
-1;
#X obj 243 334 bng 15 250 50 0 e empty empty 17 7 0 10 -262144 -1 -1
;
#X obj 266 292 bng 15 250 50 0 eq empty empty 17 7 0 10 -262144 -1
-1;
#X obj 285 336 bng 15 250 50 0 f empty empty 17 7 0 10 -262144 -1 -1
;
#X obj 324 327 bng 15 250 50 0 g empty empty 17 7 0 10 -262144 -1 -1
;
#X obj 358 283 bng 15 250 50 0 gq empty empty 17 7 0 10 -262144 -1
-1;
#X obj 388 327 bng 15 250 50 0 a2 empty empty 17 7 0 10 -262144 -1
-1;
#X obj 92 27 receive pulse1NoteSelect;
#X obj 78 99 tabread pulse1Sequence;
#X obj 85 116 int;
#X text 306 23 Pulse1 Sequencer;
#X obj 119 188 select 0 1 2 3 4 5 6 7 8 9 10 11 12;
#X text 59 258 comment;
#X connect 0 0 13 0;
#X connect 15 0 1 0;
#X connect 16 0 2 0;
#X connect 17 0 3 0;
#X connect 18 0 4 0;
#X connect 19 0 5 0;
#X connect 20 0 6 0;
#X connect 21 0 7 0;
#X connect 22 0 8 0;
#X connect 23 0 9 0;
#X connect 24 0 10 0;
#X connect 25 0 11 0;
#X connect 26 0 12 0;
#X connect 27 0 28 0;
#X connect 28 0 29 0;
#X connect 29 0 31 0;
#X connect 31 0 0 0;
#X connect 31 1 15 0;
#X connect 31 2 16 0;
#X connect 31 3 17 0;
#X connect 31 4 18 0;
#X connect 31 5 19 0;
#X connect 31 6 20 0;
#X connect 31 7 21 0;
#X connect 31 8 22 0;
#X connect 31 9 23 0;
#X connect 31 10 24 0;
#X connect 31 11 25 0;
#X connect 31 12 26 0;
#X restore 125 -4 pd c1Sequencer;
#N canvas 917 219 1003 861 sequencerControls 0;
#X obj 84 39 tgl 15 0 empty autoPlay empty 17 7 0 10 -262144 -1 -1
0 1;
#X obj 118 93 bng 15 250 50 0 empty empty empty 17 7 0 10 -262144 -1
-1;
#X msg 265 54 0;
#X obj 126 131 f;
#X floatatom 267 118 5 0 0 0 - - -, f 5;
#X msg 203 148 1;
#X obj 176 173 +;
#X obj 226 226 mod 4;
#X obj 231 16 loadbang;
#X obj 360 108 mod 16;
#X obj 39 493 send metroToDrumSequencer;
#X obj 527 501 send pulse1NoteSelect;
#X obj 376 498 send pulse2NoteSelect;
#X obj 216 498 send waveform3NoteSelect;
#X obj 121 57 metro 300;
#X obj 550 327 spigot;
#X obj 598 290 tgl 15 0 pulse1SeqOn empty empty 17 7 0 10 -262144 -1
-1 0 1;
#X obj 399 369 spigot;
#X obj 447 332 tgl 15 0 pulse2SeqOn empty empty 17 7 0 10 -262144 -1
-1 0 1;
#X obj 242 378 spigot;
#X obj 290 341 tgl 15 0 waveform3SeqOn empty empty 17 7 0 10 -262144
-1 -1 0 1;
#X obj 75 385 spigot;
#X obj 123 348 tgl 15 0 noise4SeqOn empty empty 17 7 0 10 -262144 -1
-1 1 1;
#X obj 609 79 r seqController;
#X obj 793 395 tgl 15 0 seqActive empty empty 17 7 0 10 -262144 -1
-1 0 1;
#X obj 565 114 route pulse1 pulse2 waveform3 noise4 sequencer metro
;
#X connect 0 0 14 0;
#X connect 1 0 3 0;
#X connect 2 0 4 0;
#X connect 2 0 3 1;
#X connect 3 0 4 0;
#X connect 3 0 6 0;
#X connect 4 0 7 0;
#X connect 4 0 9 0;
#X connect 5 0 6 1;
#X connect 6 0 3 1;
#X connect 7 0 21 0;
#X connect 8 0 5 0;
#X connect 9 0 19 0;
#X connect 9 0 17 0;
#X connect 9 0 15 0;
#X connect 14 0 1 0;
#X connect 15 0 11 0;
#X connect 16 0 15 1;
#X connect 17 0 12 0;
#X connect 18 0 17 1;
#X connect 19 0 13 0;
#X connect 20 0 19 1;
#X connect 21 0 10 0;
#X connect 22 0 21 1;
#X connect 23 0 25 0;
#X connect 25 0 16 0;
#X connect 25 1 18 0;
#X connect 25 2 20 0;
#X connect 25 3 22 0;
#X connect 25 4 24 0;
#X connect 25 5 14 1;
#X restore 454 319 pd sequencerControls;
#X text 578 193 Drum Machine;
#X obj 783 199 tgl 15 0 doubleBeat empty empty 17 7 0 10 -262144 -1
-1 0 1;
#X text 695 196 DoubleBeat;
#X text 296 -19 Pulse Channel 2;
#X obj 580 224 hradio 15 1 0 16 drumPattern empty empty 0 -8 0 10 -262144
-1 -1 15;
#N canvas 0 314 920 618 c4Sequencer 0;
#X obj -104 372 send noise4Beat;
#X floatatom 196 132 5 0 15 0 - - -, f 5;
#X obj 179 248 tgl 15 0 empty empty empty 17 7 0 10 -262144 -1 -1 1
1;
#X obj 148 250 tgl 15 0 empty empty empty 17 7 0 10 -262144 -1 -1 1
1;
#X obj 208 249 tgl 15 0 empty empty empty 17 7 0 10 -262144 -1 -1 1
1;
#X obj 240 248 tgl 15 0 empty empty empty 17 7 0 10 -262144 -1 -1 1
1;
#X obj 456 174 expr if($f1 > 0 \, 1 \, 0);
#X obj 361 119 % 2;
#X obj 290 148 % 4;
#X obj 200 154 % 8;
#X obj 119 85 hradio 15 1 0 16 empty drumPattern empty 0 -8 0 10 -262144
-1 -1 15;
#X obj -77 271 select 0 1 2 3;
#X obj -74 302 spigot;
#X obj -132 305 spigot;
#X obj 43 300 spigot;
#X obj -15 303 spigot;
#X obj 283 177 expr if($f1 > 1 \, 1 \, 0);
#X obj 123 177 expr if($f1 > 3 \, 1 \, 0);
#X obj -41 176 expr if($f1 > 7 \, 1 \, 0);
#X obj 156 290 tgl 15 0 empty doubleBeat empty 17 7 0 10 -262144 -1
-1 0 1;
#X obj 107 320 spigot;
#X obj 65 340 delay 300;
#X text 151 54 Drum Rhythm Selector;
#X text 184 293 DoubleBeat;
#X obj -198 230 receive metroToDrumSequencer;
#X connect 1 0 8 0;
#X connect 1 0 7 0;
#X connect 1 0 9 0;
#X connect 1 0 18 0;
#X connect 2 0 12 1;
#X connect 3 0 13 1;
#X connect 4 0 15 1;
#X connect 5 0 14 1;
#X connect 6 0 5 0;
#X connect 7 0 6 0;
#X connect 8 0 16 0;
#X connect 9 0 17 0;
#X connect 10 0 1 0;
#X connect 11 0 13 0;
#X connect 11 1 12 0;
#X connect 11 2 15 0;
#X connect 11 3 14 0;
#X connect 12 0 0 0;
#X connect 12 0 20 0;
#X connect 13 0 0 0;
#X connect 13 0 20 0;
#X connect 14 0 0 0;
#X connect 14 0 20 0;
#X connect 15 0 0 0;
#X connect 15 0 20 0;
#X connect 16 0 4 0;
#X connect 17 0 2 0;
#X connect 18 0 3 0;
#X connect 19 0 20 1;
#X connect 20 0 21 0;
#X connect 21 0 0 0;
#X connect 24 0 11 0;
#X restore 274 231 pd c4Sequencer;
#N canvas 91 405 922 516 c2Sequencer 0;
#X obj 31 324 bng 15 250 50 0 pulse2a empty empty 17 7 0 10 -262144
-1 -1;
#X msg 67 298 1767;
#X msg 89 350 1783;
#X msg 133 345 1797;
#X msg 163 306 1811;
#X msg 195 350 1825;
#X msg 217 311 1837;
#X msg 238 351 1849;
#X msg 258 312 1860;
#X msg 280 351 1871;
#X msg 326 347 1881;
#X msg 357 306 1890;
#X msg 378 346 1899;
#X msg 28 349 1751;
#X text 202 378 A @ 440 to 880;
#X obj 69 281 bng 15 250 50 0 pulse2aq empty empty 17 7 0 10 -262144
-1 -1;
#X obj 98 324 bng 15 250 50 0 pulse2b empty empty 17 7 0 10 -262144
-1 -1;
#X obj 142 326 bng 15 250 50 0 pulse2c empty empty 17 7 0 10 -262144
-1 -1;
#X obj 176 279 bng 15 250 50 0 pulse2cq empty empty 17 7 0 10 -262144
-1 -1;
#X obj 197 329 bng 15 250 50 0 pulse2d empty empty 17 7 0 10 -262144
-1 -1;
#X obj 221 281 bng 15 250 50 0 pulse2dq empty empty 17 7 0 10 -262144
-1 -1;
#X obj 243 334 bng 15 250 50 0 pulse2e empty empty 17 7 0 10 -262144
-1 -1;
#X obj 266 292 bng 15 250 50 0 pulse2eq empty empty 17 7 0 10 -262144
-1 -1;
#X obj 285 336 bng 15 250 50 0 pulse2f empty empty 17 7 0 10 -262144
-1 -1;
#X obj 324 327 bng 15 250 50 0 pulse2g empty empty 17 7 0 10 -262144
-1 -1;
#X obj 358 283 bng 15 250 50 0 pulse2gq empty empty 17 7 0 10 -262144
-1 -1;
#X obj 388 327 bng 15 250 50 0 pulse2a2 empty empty 17 7 0 10 -262144
-1 -1;
#X obj 85 116 int;
#X obj 119 188 select 0 1 2 3 4 5 6 7 8 9 10 11 12;
#X text 306 23 Pulse2 Sequencer;
#X obj 78 99 tabread pulse2Sequence;
#X obj 92 27 receive pulse2NoteSelect;
#X connect 0 0 13 0;
#X connect 15 0 1 0;
#X connect 16 0 2 0;
#X connect 17 0 3 0;
#X connect 18 0 4 0;
#X connect 19 0 5 0;
#X connect 20 0 6 0;
#X connect 21 0 7 0;
#X connect 22 0 8 0;
#X connect 23 0 9 0;
#X connect 24 0 10 0;
#X connect 25 0 11 0;
#X connect 26 0 12 0;
#X connect 27 0 28 0;
#X connect 28 0 0 0;
#X connect 28 1 15 0;
#X connect 28 2 16 0;
#X connect 28 3 17 0;
#X connect 28 4 18 0;
#X connect 28 5 19 0;
#X connect 28 6 20 0;
#X connect 28 7 21 0;
#X connect 28 8 22 0;
#X connect 28 9 23 0;
#X connect 28 10 24 0;
#X connect 28 11 25 0;
#X connect 28 12 26 0;
#X connect 30 0 27 0;
#X connect 31 0 30 0;
#X restore 438 6 pd c2Sequencer;
#N canvas 251 214 935 697 c3Sequencer 0;
#X obj 31 324 bng 15 250 50 0 waveform3a empty empty 17 7 0 10 -262144
-1 -1;
#X msg 67 298 1767;
#X msg 89 350 1783;
#X msg 133 345 1797;
#X msg 163 306 1811;
#X msg 195 350 1825;
#X msg 217 311 1837;
#X msg 238 351 1849;
#X msg 258 312 1860;
#X msg 280 351 1871;
#X msg 326 347 1881;
#X msg 357 306 1890;
#X msg 378 346 1899;
#X msg 28 349 1751;
#X obj 69 281 bng 15 250 50 0 waveform3aq empty empty 17 7 0 10 -262144
-1 -1;
#X obj 98 324 bng 15 250 50 0 waveform3b empty empty 17 7 0 10 -262144
-1 -1;
#X obj 142 326 bng 15 250 50 0 waveform3c empty empty 17 7 0 10 -262144
-1 -1;
#X obj 176 279 bng 15 250 50 0 waveform3cq empty empty 17 7 0 10 -262144
-1 -1;
#X obj 197 329 bng 15 250 50 0 waveform3d empty empty 17 7 0 10 -262144
-1 -1;
#X obj 221 281 bng 15 250 50 0 waveform3dq empty empty 17 7 0 10 -262144
-1 -1;
#X obj 243 334 bng 15 250 50 0 waveform3e empty empty 17 7 0 10 -262144
-1 -1;
#X obj 266 292 bng 15 250 50 0 waveform3eq empty empty 17 7 0 10 -262144
-1 -1;
#X obj 285 336 bng 15 250 50 0 waveform3f empty empty 17 7 0 10 -262144
-1 -1;
#X obj 324 327 bng 15 250 50 0 waveform3g empty empty 17 7 0 10 -262144
-1 -1;
#X obj 358 283 bng 15 250 50 0 waveform3gq empty empty 17 7 0 10 -262144
-1 -1;
#X obj 388 327 bng 15 250 50 0 waveform3a2 empty empty 17 7 0 10 -262144
-1 -1;
#X obj 92 138 int;
#X obj 119 188 select 0 1 2 3 4 5 6 7 8 9 10 11 12;
#X obj 92 27 receive waveform3NoteSelect;
#X text 306 23 Waveform3 Sequencer;
#X text 202 378 A @ 220 to 440;
#X obj 78 99 tabread waveform3Sequence;
#X connect 0 0 13 0;
#X connect 14 0 1 0;
#X connect 15 0 2 0;
#X connect 16 0 3 0;
#X connect 17 0 4 0;
#X connect 18 0 5 0;
#X connect 19 0 6 0;
#X connect 20 0 7 0;
#X connect 21 0 8 0;
#X connect 22 0 9 0;
#X connect 23 0 10 0;
#X connect 24 0 11 0;
#X connect 25 0 12 0;
#X connect 26 0 27 0;
#X connect 27 0 0 0;
#X connect 27 1 14 0;
#X connect 27 2 15 0;
#X connect 27 3 16 0;
#X connect 27 4 17 0;
#X connect 27 5 18 0;
#X connect 27 6 19 0;
#X connect 27 7 20 0;
#X connect 27 8 21 0;
#X connect 27 9 22 0;
#X connect 27 10 23 0;
#X connect 27 11 24 0;
#X connect 27 12 25 0;
#X connect 28 0 31 0;
#X connect 31 0 26 0;
#X restore 622 169 pd c3Sequencer;
#N canvas 0 81 687 386 sequences 0;
#N canvas 0 81 450 250 (subpatch) 0;
#X array pulse1Sequence 16 float 3;
#A 0 1.56 4.33333 9.36 9.36 9.36 4.33333 1.38667 1.38667 1.38667 4.94
4.94 4.94 8.23333 8.23333 8.23333 8.14667;
#X coords 0 0 16 13 205 150 1 0 20;
#X restore 12 25 graph;
#N canvas 0 50 450 250 (subpatch) 0;
#X array pulse2Sequence 16 float 3;
#A 0 1.99333 1.99333 4.24665 1.99333 1.99333 4.41999 1.99333 1.99333
4.59332 1.99333 1.99333 6.93333 6.93333 6.93333 6.93333 6.93333;
#X coords 0 0 16 13 205 150 1 0 20;
#X restore 243 26 graph;
#N canvas 0 50 450 250 (subpatch) 0;
#X array waveform3Sequence 16 float 3;
#A 0 0.52001 2.86 0.693334 2.86 0.693338 2.86 0.693348 2.68667 0.693346
2.86 0.693336 2.86 0.780016 2.86 0.866665 3.03334;
#X coords 0 0 16 13 205 150 1 0 20;
#X restore 460 26 graph;
#X restore 456 362 pd sequences;
#N canvas 693 134 1022 946 osc_in 0;
#X obj 29 112 netreceive -u -b;
#X msg 52 71 listen 0;
#X text 126 71 stop listening;
#X text 38 13 packets from network;
#X text 147 105 UDP packets \, binary output, f 13;
#X text 124 42 listen on port 8000;
#X obj 151 197 oscparse;
#X obj 151 221 list trim;
#X floatatom 373 89 5 0 0 0 - - -, f 5;
#X text 286 -17 Parse the OSC message;
#X obj 373 45 route unity;
#X obj 372 66 route trigger;
#X obj 373 116 s osctrig;
#X msg 40 43 listen 8000;
#X obj 546 192 print;
#X obj 547 94 route mute;
#X obj 631 117 bng 15 250 50 0 empty empty empty 17 7 0 10 -262144
-1 -1;
#X msg 627 144 0;
#X floatatom 627 165 5 0 0 0 - - OSC_MUTE, f 5;
#X obj 153 304 route PD;
#X obj 153 325 route message;
#X obj 64 261 print;
#X obj 163 416 route getItem bigExplosion longExplosion bigLaser longLaser
;
#X obj 32 412 s seqController;
#X obj 284 292 print;
#X obj 642 451 0;
#X obj 633 413 route muteMusic dimMusic brightenMusic;
#X obj 156 452 s getItem;
#X obj 702 450 8;
#X obj 687 638 2;
#X obj 720 640 3;
#X obj 708 486 s uiInitialVolume;
#X obj 702 521 s pulse2uiInitialVolume;
#X obj 701 581 s noise4uiInitialVolume;
#X obj 681 684 s waveform3uiInitialVolume;
#X obj 435 448 s bigLaser;
#X obj 506 450 s longLaser;
#N canvas 844 496 826 297 lasers 0;
#X obj 270 160 s envelopeDown;
#X obj 288 116 delay 5;
#X obj 267 180 s sweepDelay;
#X obj 131 184 s sweepMagnitude;
#X obj 56 186 s envelope;
#X obj 96 164 0;
#X obj 97 207 s pulse1SetLengthToggle;
#X obj 228 101 0;
#X msg 63 52 pulse1 0;
#X msg 293 75 pulse1 1;
#X obj 238 186 15;
#X obj 242 210 s uiInitialVolume;
#X obj 293 96 s seqController;
#X obj 63 73 s seqController;
#X obj 649 170 s envelopeDown;
#X obj 667 126 delay 5;
#X obj 646 190 s sweepDelay;
#X obj 510 194 s sweepMagnitude;
#X obj 435 196 s envelope;
#X obj 476 217 s pulse1SetLengthToggle;
#X obj 536 172 s wave3;
#X obj 607 111 0;
#X msg 442 62 pulse1 0;
#X msg 672 85 pulse1 1;
#X obj 617 196 15;
#X obj 621 220 s uiInitialVolume;
#X obj 672 106 s seqController;
#X obj 442 83 s seqController;
#X obj 209 161 s sweepDown;
#X obj 106 111 r bigLaser;
#X obj 157 162 s wave1;
#X obj 132 162 7;
#X obj 288 137 s g;
#X obj 56 165 4;
#X obj 485 121 r longLaser;
#X obj 583 84 delay 1200;
#X obj 435 175 7;
#X obj 667 147 s a2;
#X obj 588 171 s sweepDown;
#X obj 475 175 0;
#X obj 512 174 7;
#X obj 204 74 delay 1400;
#X obj 332 29 8;
#X obj 648 39 8;
#X connect 1 0 32 0;
#X connect 5 0 6 0;
#X connect 7 0 3 0;
#X connect 7 0 2 0;
#X connect 7 0 9 0;
#X connect 8 0 13 0;
#X connect 9 0 12 0;
#X connect 10 0 11 0;
#X connect 15 0 37 0;
#X connect 21 0 17 0;
#X connect 21 0 16 0;
#X connect 21 0 23 0;
#X connect 22 0 27 0;
#X connect 23 0 26 0;
#X connect 24 0 25 0;
#X connect 29 0 1 0;
#X connect 29 0 0 0;
#X connect 29 0 5 0;
#X connect 29 0 8 0;
#X connect 29 0 10 0;
#X connect 29 0 28 0;
#X connect 29 0 30 0;
#X connect 29 0 31 0;
#X connect 29 0 33 0;
#X connect 29 0 41 0;
#X connect 31 0 2 0;
#X connect 31 0 3 0;
#X connect 33 0 4 0;
#X connect 34 0 15 0;
#X connect 34 0 14 0;
#X connect 34 0 20 0;
#X connect 34 0 22 0;
#X connect 34 0 24 0;
#X connect 34 0 35 0;
#X connect 34 0 36 0;
#X connect 34 0 38 0;
#X connect 34 0 39 0;
#X connect 34 0 40 0;
#X connect 35 0 21 0;
#X connect 35 0 43 0;
#X connect 36 0 18 0;
#X connect 39 0 19 0;
#X connect 40 0 16 0;
#X connect 40 0 17 0;
#X connect 41 0 7 0;
#X connect 41 0 42 0;
#X connect 42 0 11 0;
#X connect 43 0 25 0;
#X restore 470 482 pd lasers;
#N canvas 0 81 450 267 item 0;
#X obj 72 109 r getItem;
#X obj 175 159 s sweepUp;
#X obj 254 114 delay 5;
#X obj 254 135 s a;
#X obj 233 178 s sweepDelay;
#X obj 97 182 s sweepMagnitude;
#X obj 97 161 7;
#X obj 22 184 s envelope;
#X obj 62 162 0;
#X obj 63 205 s pulse1SetLengthToggle;
#X obj 123 160 s wave3;
#X obj 194 99 0;
#X msg 29 50 pulse1 0;
#X msg 259 73 pulse1 1;
#X obj 208 208 s uiInitialVolume;
#X obj 259 94 s seqController;
#X obj 29 71 s seqController;
#X obj 236 158 s envelopeUp;
#X obj 21 162 2;
#X obj 190 46 delay 700;
#X obj 342 136 8;
#X obj 204 184 16;
#X connect 0 0 2 0;
#X connect 0 0 1 0;
#X connect 0 0 10 0;
#X connect 0 0 6 0;
#X connect 0 0 8 0;
#X connect 0 0 12 0;
#X connect 0 0 17 0;
#X connect 0 0 18 0;
#X connect 0 0 19 0;
#X connect 0 0 21 0;
#X connect 2 0 3 0;
#X connect 6 0 4 0;
#X connect 6 0 5 0;
#X connect 8 0 9 0;
#X connect 11 0 5 0;
#X connect 11 0 4 0;
#X connect 11 0 13 0;
#X connect 11 0 7 0;
#X connect 12 0 16 0;
#X connect 13 0 15 0;
#X connect 18 0 7 0;
#X connect 19 0 11 0;
#X connect 19 0 20 0;
#X connect 20 0 14 0;
#X connect 21 0 14 0;
#X restore 132 559 pd item;
#X obj 229 445 s bigExplosion;
#X obj 322 445 s longExplosion;
#N canvas 1047 341 822 666 explosion 0;
#X obj 228 101 0;
#X obj 247 167 15;
#X obj 293 96 s seqController;
#X obj 63 73 s seqController;
#X obj 204 74 delay 1400;
#X msg 63 52 noise4 0;
#X obj 114 121 r bigExplosion;
#X obj 119 175 s noise4EnvelopeDown;
#X obj 97 207 s noise4SetLengthToggle;
#X obj 288 137 s noise4Start;
#X obj 344 225 s noise4uiInitialVolume;
#X obj 219 235 s noise4SetLength;
#X obj 242 203 0;
#X obj 97 163 0;
#X obj 384 170 1;
#X obj 58 236 s noise4Envelope;
#X obj 66 201 0;
#X obj 424 156 delay 400;
#X obj 47 159 7;
#X obj 405 130 delay 100;
#X msg 293 75 noise4 1;
#X obj 332 29 4;
#X obj 518 205 s vol;
#X msg 516 164 muteMusic;
#X msg 517 127 dimMusic;
#X obj 288 116 delay 10;
#X obj 230 388 0;
#X obj 295 383 s seqController;
#X obj 65 360 s seqController;
#X msg 65 339 noise4 0;
#X obj 99 494 s noise4SetLengthToggle;
#X obj 290 424 s noise4Start;
#X obj 346 512 s noise4uiInitialVolume;
#X obj 221 522 s noise4SetLength;
#X obj 244 490 0;
#X obj 99 450 0;
#X obj 386 457 1;
#X obj 60 523 s noise4Envelope;
#X obj 68 488 0;
#X msg 295 362 noise4 1;
#X obj 334 316 4;
#X obj 520 492 s vol;
#X msg 518 451 muteMusic;
#X msg 519 414 dimMusic;
#X obj 290 403 delay 10;
#X obj 116 408 r longExplosion;
#X obj 121 462 s noise4EnvelopeUp;
#X obj 407 417 delay 800;
#X obj 426 443 delay 800;
#X obj 206 361 delay 2000;
#X obj 49 446 7;
#X obj 361 492 s noise4EnvelopeDown;
#X obj 249 454 8;
#X connect 0 0 20 0;
#X connect 1 0 10 0;
#X connect 4 0 0 0;
#X connect 4 0 21 0;
#X connect 4 0 24 0;
#X connect 5 0 3 0;
#X connect 6 0 5 0;
#X connect 6 0 4 0;
#X connect 6 0 7 0;
#X connect 6 0 12 0;
#X connect 6 0 13 0;
#X connect 6 0 16 0;
#X connect 6 0 19 0;
#X connect 6 0 23 0;
#X connect 6 0 25 0;
#X connect 12 0 11 0;
#X connect 13 0 8 0;
#X connect 14 0 8 0;
#X connect 16 0 15 0;
#X connect 17 0 14 0;
#X connect 18 0 15 0;
#X connect 19 0 17 0;
#X connect 19 0 18 0;
#X connect 20 0 2 0;
#X connect 21 0 10 0;
#X connect 23 0 22 0;
#X connect 24 0 22 0;
#X connect 25 0 9 0;
#X connect 25 0 1 0;
#X connect 26 0 39 0;
#X connect 29 0 28 0;
#X connect 34 0 33 0;
#X connect 35 0 30 0;
#X connect 36 0 30 0;
#X connect 38 0 37 0;
#X connect 39 0 27 0;
#X connect 40 0 32 0;
#X connect 40 0 51 0;
#X connect 42 0 41 0;
#X connect 43 0 41 0;
#X connect 44 0 31 0;
#X connect 44 0 52 0;
#X connect 45 0 29 0;
#X connect 45 0 34 0;
#X connect 45 0 35 0;
#X connect 45 0 38 0;
#X connect 45 0 42 0;
#X connect 45 0 44 0;
#X connect 45 0 46 0;
#X connect 45 0 47 0;
#X connect 45 0 49 0;
#X connect 47 0 48 0;
#X connect 47 0 50 0;
#X connect 48 0 36 0;
#X connect 49 0 26 0;
#X connect 49 0 40 0;
#X connect 49 0 43 0;
#X connect 50 0 37 0;
#X connect 52 0 32 0;
#X restore 271 479 pd explosion;
#X obj 772 560 4;
#X obj 765 447 13;
#X obj 304 379 s vol;
#X obj 659 362 r vol;
#X obj 156 351 route sequencer soundEffects volume oscprep;
#X obj 499 322 1;
#X obj 499 343 s oscPrepOn;
#X connect 0 0 6 0;
#X connect 1 0 0 0;
#X connect 6 0 7 0;
#X connect 7 0 10 0;
#X connect 7 0 19 0;
#X connect 7 0 21 0;
#X connect 8 0 12 0;
#X connect 10 0 11 0;
#X connect 11 0 8 0;
#X connect 13 0 0 0;
#X connect 15 1 14 0;
#X connect 15 1 16 0;
#X connect 16 0 17 0;
#X connect 17 0 18 0;
#X connect 19 0 20 0;
#X connect 20 0 24 0;
#X connect 20 0 46 0;
#X connect 22 0 27 0;
#X connect 22 1 39 0;
#X connect 22 2 40 0;
#X connect 22 3 35 0;
#X connect 22 4 36 0;
#X connect 25 0 31 0;
#X connect 25 0 32 0;
#X connect 25 0 33 0;
#X connect 25 0 34 0;
#X connect 26 0 25 0;
#X connect 26 1 28 0;
#X connect 26 1 29 0;
#X connect 26 1 42 0;
#X connect 26 2 30 0;
#X connect 26 2 43 0;
#X connect 28 0 31 0;
#X connect 28 0 32 0;
#X connect 29 0 34 0;
#X connect 30 0 34 0;
#X connect 42 0 33 0;
#X connect 43 0 31 0;
#X connect 43 0 32 0;
#X connect 43 0 33 0;
#X connect 45 0 26 0;
#X connect 46 0 23 0;
#X connect 46 1 22 0;
#X connect 46 2 44 0;
#X connect 46 3 47 0;
#X connect 47 0 48 0;
#X restore 546 362 pd osc_in;
#X coords 0 0 3 3 0 0 0;
