#N canvas 282 323 973 726 10;
#X text 395 253 creation arguments are OSC address;
#X text 397 214 set message to change OSC address;
#X text 164 48 1 Set IP Address : network address;
#X text 164 68 2 Set Ports (sending and listening);
#X text 164 87 3 Set OSC Addresses (routing osc data;
#X text 155 26 Key Settings;
#X floatatom 263 163 5 0 0 0 - - -, f 5;
#N canvas 886 81 494 445 oscReceive 0;
#X obj 55 184 netreceive -u -b;
#X msg 78 143 listen 0;
#X text 152 143 stop listening;
#X text 64 85 packets from network;
#X text 173 177 UDP packets \, binary output, f 13;
#X obj 45 314 print;
#X obj 45 272 oscparse;
#X text 150 114 listen on port 8000;
#X obj 177 269 oscparse;
#X obj 177 293 list trim;
#X floatatom 177 363 5 0 0 0 - - -, f 5;
#X text 241 267 Parse the OSC message;
#X obj 177 319 route unity;
#X obj 176 340 route trigger;
#X obj 177 390 s osctrig;
#X msg 66 115 listen 8000;
#X connect 0 0 6 0;
#X connect 0 0 8 0;
#X connect 1 0 0 0;
#X connect 6 0 5 0;
#X connect 8 0 9 0;
#X connect 9 0 12 0;
#X connect 10 0 14 0;
#X connect 12 0 13 0;
#X connect 13 0 10 0;
#X connect 15 0 0 0;
#X restore 47 142 pd oscReceive;
#X obj 47 36 tgl 15 0 empty empty empty 17 7 0 10 -262144 -1 -1 0 1
;
#X msg 47 61 \; pd dsp \$1;
#X msg 294 215 set PD message;
#X obj 262 289 s oscOut;
#X msg 254 582 disconnect;
#X obj 157 628 netsend -u -b;
#X obj 155 430 list prepend send;
#X obj 155 455 list trim;
#X msg 246 550 connect 127.0.0.1 8001;
#X obj 155 404 r oscOut;
#X text 397 538 send to port 8001;
#X msg 243 523 connect localhost 8000;
#X msg 98 188 mute;
#X msg 152 187 done;
#X obj 98 209 list;
#X obj 262 254 oscformat PD message;
#X obj 589 155 list;
#X msg 760 41 sequencer pulse1 0;
#X msg 762 66 sequencer pulse2 1;
#X msg 759 87 sequencer pulse2 0;
#X msg 762 107 sequencer waveform3 1;
#X msg 762 150 sequencer noise4 1;
#X msg 763 129 sequencer waveform3 0;
#X msg 763 172 sequencer noise4 0;
#X msg 763 18 sequencer pulse1 1;
#X msg 814 372 volume dimMusic;
#X msg 814 354 volume brightenMusic;
#X msg 814 390 volume muteMusic;
#X msg 764 423 soundEffects getItem;
#X msg 762 443 soundEffects bigLaser;
#X msg 762 464 soundEffects longLaser;
#X msg 752 527 soundEffects bigExplosion;
#X msg 747 559 soundEffects longExplosion;
#X msg 765 201 sequencer sequencer 1;
#X msg 766 223 sequencer sequencer 0;
#X floatatom 922 246 5 0 0 0 - - -, f 5;
#X msg 806 251 sequencer metro;
#X obj 806 272 list;
#X obj 806 293 list append;
#X obj 922 266 list;
#X obj 820 320 print;
#X msg 489 24 oscprep;
#X connect 6 0 23 0;
#X connect 8 0 9 0;
#X connect 10 0 23 0;
#X connect 12 0 13 0;
#X connect 14 0 15 0;
#X connect 15 0 13 0;
#X connect 16 0 13 0;
#X connect 17 0 14 0;
#X connect 19 0 13 0;
#X connect 20 0 22 0;
#X connect 21 0 22 1;
#X connect 22 0 23 0;
#X connect 23 0 11 0;
#X connect 24 0 23 0;
#X connect 25 0 24 0;
#X connect 26 0 24 0;
#X connect 27 0 24 0;
#X connect 28 0 24 0;
#X connect 29 0 24 0;
#X connect 30 0 24 0;
#X connect 31 0 24 0;
#X connect 32 0 24 0;
#X connect 33 0 24 0;
#X connect 34 0 24 0;
#X connect 35 0 24 0;
#X connect 36 0 24 0;
#X connect 37 0 24 0;
#X connect 38 0 24 0;
#X connect 39 0 24 0;
#X connect 40 0 24 0;
#X connect 41 0 24 0;
#X connect 42 0 24 0;
#X connect 43 0 47 0;
#X connect 44 0 45 0;
#X connect 45 0 46 0;
#X connect 46 0 23 0;
#X connect 46 0 48 0;
#X connect 47 0 46 1;
#X connect 49 0 24 0;
